<svg width="2506" height="5180" viewBox="0 0 2506 5180" fill="none" xmlns="http://www.w3.org/2000/svg">
<g filter="url(#filter0_f_7_73)">
<ellipse cx="1143.77" cy="2004.62" rx="298.766" ry="356.617" fill="#005881"/>
</g>
<path d="M187.417 1866.1C187.417 1883.19 173.907 1897 157.303 1897C140.699 1897 127.189 1883.19 127.189 1866.1C127.189 1849 140.699 1835.19 157.303 1835.19C173.907 1835.19 187.417 1849 187.417 1866.1Z" stroke="#272727" stroke-width="2.37745"/>
<g filter="url(#filter1_f_7_73)">
<path d="M766.474 2069.2C766.474 2075.47 761.515 2080.54 755.419 2080.54C749.324 2080.54 744.365 2075.47 744.365 2069.2C744.365 2062.92 749.324 2057.85 755.419 2057.85C761.515 2057.85 766.474 2062.92 766.474 2069.2Z" stroke="white" stroke-width="0.872733"/>
</g>
<rect x="1221.4" y="1824.03" width="87.173" height="383.561" rx="43.5865" stroke="url(#paint0_linear_7_73)" stroke-width="2.37745"/>
<path d="M911.189 2162.17C911.189 2149.48 921.478 2139.19 934.171 2139.19C946.863 2139.19 957.153 2149.48 957.153 2162.17V2290.55C957.153 2303.25 946.863 2313.53 934.171 2313.53C921.478 2313.53 911.189 2303.25 911.189 2290.55V2162.17Z" stroke="url(#paint1_linear_7_73)" stroke-width="2.37745"/>
<path d="M1346.69 3848.5C1346.69 3814.36 1374.36 3786.69 1408.5 3786.69C1442.64 3786.69 1470.32 3814.36 1470.32 3848.5V4049C1470.32 4083.14 1442.64 4110.81 1408.5 4110.81C1374.36 4110.81 1346.69 4083.14 1346.69 4049V3848.5Z" stroke="url(#paint2_linear_7_73)" stroke-width="2.37745"/>
<path d="M1346.69 3848.5C1346.69 3814.36 1374.36 3786.69 1408.5 3786.69C1442.64 3786.69 1470.32 3814.36 1470.32 3848.5V4049C1470.32 4083.14 1442.64 4110.81 1408.5 4110.81C1374.36 4110.81 1346.69 4083.14 1346.69 4049V3848.5Z" stroke="url(#paint3_linear_7_73)" stroke-width="2.37745"/>
<path d="M1346.69 3848.5C1346.69 3814.36 1374.36 3786.69 1408.5 3786.69C1442.64 3786.69 1470.32 3814.36 1470.32 3848.5V4049C1470.32 4083.14 1442.64 4110.81 1408.5 4110.81C1374.36 4110.81 1346.69 4083.14 1346.69 4049V3848.5Z" stroke="url(#paint4_linear_7_73)" stroke-width="2.37745"/>
<path d="M1346.69 3848.5C1346.69 3814.36 1374.36 3786.69 1408.5 3786.69C1442.64 3786.69 1470.32 3814.36 1470.32 3848.5V4049C1470.32 4083.14 1442.64 4110.81 1408.5 4110.81C1374.36 4110.81 1346.69 4083.14 1346.69 4049V3848.5Z" stroke="url(#paint5_linear_7_73)" stroke-width="2.37745"/>
<rect x="518.189" y="2294.19" width="95.0978" height="180.686" rx="47.5489" stroke="url(#paint6_linear_7_73)" stroke-width="2.37745"/>
<g filter="url(#filter2_f_7_73)">
<path d="M1615.62 710.988C1615.62 816.468 1535.79 901.976 1437.31 901.976C1338.83 901.976 1259 816.468 1259 710.988C1259 605.508 1338.83 520 1437.31 520C1535.79 520 1615.62 605.508 1615.62 710.988Z" fill="#006C9C"/>
</g>
<g filter="url(#filter3_f_7_73)">
<ellipse cx="1457.95" cy="2928.75" rx="206.045" ry="263.5" fill="#0094D9"/>
</g>
<g filter="url(#filter4_f_7_73)">
<ellipse cx="1401.69" cy="4044.57" rx="206.045" ry="263.5" fill="#048AD1"/>
</g>
<g filter="url(#filter5_f_7_73)">
<path d="M1377.91 2037.6L1382.01 2050.2H1395.25L1384.54 2057.98L1388.63 2070.58L1377.91 2062.79L1367.2 2070.58L1371.29 2057.98L1360.58 2050.2H1373.82L1377.91 2037.6Z" fill="#1AA0CA" fill-opacity="0.43"/>
<path d="M1377.91 2041.45L1380.88 2050.57L1381.14 2051.39H1382.01H1391.59L1383.84 2057.02L1383.14 2057.53L1383.4 2058.35L1386.37 2067.47L1378.61 2061.83L1377.91 2061.32L1377.22 2061.83L1369.46 2067.47L1372.42 2058.35L1372.69 2057.53L1371.99 2057.02L1364.24 2051.39H1373.82H1374.69L1374.95 2050.57L1377.91 2041.45Z" stroke="#0EC5FF" stroke-width="2.37745"/>
</g>
<g filter="url(#filter6_f_7_73)">
<path d="M445.559 3552.04L450.452 3567.1L466.286 3567.1L453.476 3576.4L458.369 3591.46L445.559 3582.16L432.749 3591.46L437.642 3576.4L424.832 3567.1L440.666 3567.1L445.559 3552.04Z" fill="#1AA0CA"/>
</g>
<g filter="url(#filter7_bf_7_73)">
<path d="M1143.77 3343.33C1144.15 3341.68 1146.49 3341.68 1146.87 3343.33L1148.01 3348.4C1148.25 3349.46 1149.48 3349.97 1150.4 3349.39L1154.8 3346.61C1156.23 3345.71 1157.89 3347.37 1156.98 3348.8L1154.21 3353.19C1153.63 3354.12 1154.13 3355.34 1155.2 3355.58L1160.27 3356.73C1161.92 3357.1 1161.92 3359.45 1160.27 3359.82L1155.2 3360.97C1154.13 3361.21 1153.63 3362.43 1154.21 3363.36L1156.98 3367.75C1157.89 3369.18 1156.23 3370.84 1154.8 3369.94L1150.4 3367.16C1149.48 3366.58 1148.25 3367.09 1148.01 3368.16L1146.87 3373.22C1146.49 3374.87 1144.15 3374.87 1143.77 3373.22L1142.63 3368.16C1142.39 3367.09 1141.16 3366.58 1140.24 3367.16L1135.84 3369.94C1134.42 3370.84 1132.75 3369.18 1133.66 3367.75L1136.43 3363.36C1137.02 3362.43 1136.51 3361.21 1135.44 3360.97L1130.37 3359.82C1128.72 3359.45 1128.72 3357.1 1130.37 3356.73L1135.44 3355.58C1136.51 3355.34 1137.02 3354.12 1136.43 3353.19L1133.66 3348.8C1132.75 3347.37 1134.42 3345.71 1135.84 3346.61L1140.24 3349.39C1141.16 3349.97 1142.39 3349.46 1142.63 3348.4L1143.77 3343.33Z" fill="#1AA0CA"/>
</g>
<path d="M219.155 2385.49C219.155 2414.41 196.301 2437.8 168.172 2437.8C140.042 2437.8 117.189 2414.41 117.189 2385.49C117.189 2356.58 140.042 2333.19 168.172 2333.19C196.301 2333.19 219.155 2356.58 219.155 2385.49Z" stroke="url(#paint7_linear_7_73)" stroke-width="2.37745"/>
<path d="M1566.13 642.54C1566.13 732.785 1494.78 805.892 1406.84 805.892C1318.89 805.892 1247.55 732.785 1247.55 642.54C1247.55 552.296 1318.89 479.189 1406.84 479.189C1494.78 479.189 1566.13 552.296 1566.13 642.54Z" stroke="url(#paint8_linear_7_73)" stroke-width="2.37745"/>
<defs>
<filter id="filter0_f_7_73" x="0.214233" y="803.214" width="2287.1" height="2402.81" filterUnits="userSpaceOnUse" color-interpolation-filters="sRGB">
<feFlood flood-opacity="0" result="BackgroundImageFix"/>
<feBlend mode="normal" in="SourceGraphic" in2="BackgroundImageFix" result="shape"/>
<feGaussianBlur stdDeviation="422.393" result="effect1_foregroundBlur_7_73"/>
</filter>
<filter id="filter1_f_7_73" x="741.174" y="2054.66" width="28.4903" height="29.0722" filterUnits="userSpaceOnUse" color-interpolation-filters="sRGB">
<feFlood flood-opacity="0" result="BackgroundImageFix"/>
<feBlend mode="normal" in="SourceGraphic" in2="BackgroundImageFix" result="shape"/>
<feGaussianBlur stdDeviation="1.3771" result="effect1_foregroundBlur_7_73"/>
</filter>
<filter id="filter2_f_7_73" x="739.925" y="0.924316" width="1394.77" height="1420.13" filterUnits="userSpaceOnUse" color-interpolation-filters="sRGB">
<feFlood flood-opacity="0" result="BackgroundImageFix"/>
<feBlend mode="normal" in="SourceGraphic" in2="BackgroundImageFix" result="shape"/>
<feGaussianBlur stdDeviation="259.538" result="effect1_foregroundBlur_7_73"/>
</filter>
<filter id="filter3_f_7_73" x="410.294" y="1823.63" width="2095.32" height="2210.23" filterUnits="userSpaceOnUse" color-interpolation-filters="sRGB">
<feFlood flood-opacity="0" result="BackgroundImageFix"/>
<feBlend mode="normal" in="SourceGraphic" in2="BackgroundImageFix" result="shape"/>
<feGaussianBlur stdDeviation="420.808" result="effect1_foregroundBlur_7_73"/>
</filter>
<filter id="filter4_f_7_73" x="323.913" y="2909.33" width="2155.55" height="2270.46" filterUnits="userSpaceOnUse" color-interpolation-filters="sRGB">
<feFlood flood-opacity="0" result="BackgroundImageFix"/>
<feBlend mode="normal" in="SourceGraphic" in2="BackgroundImageFix" result="shape"/>
<feGaussianBlur stdDeviation="435.865" result="effect1_foregroundBlur_7_73"/>
</filter>
<filter id="filter5_f_7_73" x="1350.28" y="2027.3" width="55.2745" height="53.5776" filterUnits="userSpaceOnUse" color-interpolation-filters="sRGB">
<feFlood flood-opacity="0" result="BackgroundImageFix"/>
<feBlend mode="normal" in="SourceGraphic" in2="BackgroundImageFix" result="shape"/>
<feGaussianBlur stdDeviation="5.15113" result="effect1_foregroundBlur_7_73"/>
</filter>
<filter id="filter6_f_7_73" x="399.473" y="3526.68" width="92.1721" height="90.1432" filterUnits="userSpaceOnUse" color-interpolation-filters="sRGB">
<feFlood flood-opacity="0" result="BackgroundImageFix"/>
<feBlend mode="normal" in="SourceGraphic" in2="BackgroundImageFix" result="shape"/>
<feGaussianBlur stdDeviation="12.6797" result="effect1_foregroundBlur_7_73"/>
</filter>
<filter id="filter7_bf_7_73" x="1030.87" y="3243.82" width="228.905" height="228.905" filterUnits="userSpaceOnUse" color-interpolation-filters="sRGB">
<feFlood flood-opacity="0" result="BackgroundImageFix"/>
<feGaussianBlur in="BackgroundImageFix" stdDeviation="49.1339"/>
<feComposite in2="SourceAlpha" operator="in" result="effect1_backgroundBlur_7_73"/>
<feBlend mode="normal" in="SourceGraphic" in2="effect1_backgroundBlur_7_73" result="shape"/>
<feGaussianBlur stdDeviation="5.15113" result="effect2_foregroundBlur_7_73"/>
</filter>
<linearGradient id="paint0_linear_7_73" x1="1265.25" y1="1822.84" x2="1304.03" y2="2208.34" gradientUnits="userSpaceOnUse">
<stop stop-color="#1F1F1F" stop-opacity="0.6"/>
<stop offset="1" stop-color="#00A3FF" stop-opacity="0.33"/>
</linearGradient>
<linearGradient id="paint1_linear_7_73" x1="909.144" y1="2024.03" x2="924.25" y2="2201.05" gradientUnits="userSpaceOnUse">
<stop stop-opacity="0.6"/>
<stop offset="1" stop-color="#00B2FF" stop-opacity="0.28"/>
</linearGradient>
<linearGradient id="paint2_linear_7_73" x1="1315.28" y1="3129.64" x2="1335.14" y2="3457.88" gradientUnits="userSpaceOnUse">
<stop stop-color="white" stop-opacity="0.6"/>
<stop offset="1" stop-color="#00A3FF" stop-opacity="0.33"/>
</linearGradient>
<linearGradient id="paint3_linear_7_73" x1="1315.28" y1="3129.64" x2="1335.14" y2="3457.88" gradientUnits="userSpaceOnUse">
<stop stop-color="white" stop-opacity="0.6"/>
<stop offset="1" stop-color="#00A3FF" stop-opacity="0.33"/>
</linearGradient>
<linearGradient id="paint4_linear_7_73" x1="1315.28" y1="3129.64" x2="1335.14" y2="3457.88" gradientUnits="userSpaceOnUse">
<stop stop-color="white" stop-opacity="0.6"/>
<stop offset="1" stop-color="#00A3FF" stop-opacity="0.33"/>
</linearGradient>
<linearGradient id="paint5_linear_7_73" x1="1315.28" y1="3129.64" x2="1335.14" y2="3457.88" gradientUnits="userSpaceOnUse">
<stop stop-color="white" stop-opacity="0.6"/>
<stop offset="1" stop-color="#00A3FF" stop-opacity="0.33"/>
</linearGradient>
<linearGradient id="paint6_linear_7_73" x1="566.026" y1="2293" x2="574.108" y2="2477.35" gradientUnits="userSpaceOnUse">
<stop stop-color="#1F1F1F" stop-opacity="0.6"/>
<stop offset="1" stop-color="#00A3FF" stop-opacity="0.33"/>
</linearGradient>
<linearGradient id="paint7_linear_7_73" x1="168.172" y1="2332" x2="168.172" y2="2438.99" gradientUnits="userSpaceOnUse">
<stop stop-color="#02354E"/>
<stop offset="1" stop-color="#00B2FF"/>
</linearGradient>
<linearGradient id="paint8_linear_7_73" x1="1423.88" y1="578.249" x2="1284.4" y2="814.805" gradientUnits="userSpaceOnUse">
<stop offset="0.397544" stop-color="#E40000" stop-opacity="0"/>
<stop offset="0.904504" stop-color="#00F0FF"/>
</linearGradient>
</defs>
</svg>
