<svg width="2785" height="3705" viewBox="0 0 2785 3705" fill="none" xmlns="http://www.w3.org/2000/svg">
<path d="M1249.16 1723.22C1249.16 1710.62 1259.81 1700.35 1273.02 1700.35C1286.23 1700.35 1296.88 1710.62 1296.88 1723.22C1296.88 1735.82 1286.23 1746.09 1273.02 1746.09C1259.81 1746.09 1249.16 1735.82 1249.16 1723.22Z" stroke="#272727" stroke-width="1.60578"/>
<g filter="url(#filter0_f_258_580)">
<path d="M1536.47 1189.85C1536.47 1185.22 1540.38 1181.45 1545.23 1181.45C1550.08 1181.45 1553.99 1185.22 1553.99 1189.85C1553.99 1194.47 1550.08 1198.25 1545.23 1198.25C1540.38 1198.25 1536.47 1194.47 1536.47 1189.85Z" stroke="white" stroke-width="0.589462"/>
</g>
<rect x="780.196" y="1520.2" width="69.3942" height="190.394" rx="34.6971" transform="rotate(-180 780.196 1520.2)" stroke="url(#paint0_linear_258_580)" stroke-width="1.60578"/>
<rect x="1629.02" y="1283.09" width="98.2864" height="244.511" rx="49.1432" transform="rotate(-180 1629.02 1283.09)" stroke="url(#paint1_linear_258_580)" stroke-width="1.60578"/>
<rect x="745.464" y="1174.05" width="97.6621" height="239.25" rx="48.8311" transform="rotate(-180 745.464 1174.05)" stroke="url(#paint2_linear_258_580)" stroke-width="1.60578"/>
<rect x="745.464" y="1174.05" width="97.6621" height="239.25" rx="48.8311" transform="rotate(-180 745.464 1174.05)" stroke="url(#paint3_linear_258_580)" stroke-width="1.60578"/>
<rect x="745.464" y="1174.05" width="97.6621" height="239.25" rx="48.8311" transform="rotate(-180 745.464 1174.05)" stroke="url(#paint4_linear_258_580)" stroke-width="1.60578"/>
<rect x="745.464" y="1174.05" width="97.6621" height="239.25" rx="48.8311" transform="rotate(-180 745.464 1174.05)" stroke="url(#paint5_linear_258_580)" stroke-width="1.60578"/>
<rect x="2012.2" y="1932.2" width="74.3942" height="190.394" rx="37.1971" transform="rotate(-180 2012.2 1932.2)" stroke="url(#paint6_linear_258_580)" stroke-width="1.60578"/>
<g filter="url(#filter1_f_258_580)">
<ellipse cx="751.325" cy="783.378" rx="162.325" ry="194.38" transform="rotate(-180 751.325 783.378)" fill="#01B1FC"/>
</g>
<g filter="url(#filter2_f_258_580)">
<path d="M862.528 1328.91L859.304 1319.62H848.871L857.311 1313.87L854.087 1304.58L862.528 1310.32L870.968 1304.58L867.744 1313.87L876.184 1319.62H865.752L862.528 1328.91Z" fill="#1AA0CA" fill-opacity="0.43"/>
<path d="M862.528 1326.46L860.062 1319.35L859.875 1318.81H859.304H851.479L857.763 1314.54L858.271 1314.19L858.07 1313.61L855.641 1306.61L862.076 1310.99L862.528 1311.3L862.979 1310.99L869.414 1306.61L866.986 1313.61L866.784 1314.19L867.292 1314.54L873.577 1318.81H865.752H865.18L864.993 1319.35L862.528 1326.46Z" stroke="#00E8DA" stroke-width="1.60578"/>
</g>
<g filter="url(#filter3_f_258_580)">
<path d="M1643.25 1009.71L1639.39 998.605H1626.92L1637.01 991.74L1633.16 980.631L1643.25 987.497L1653.34 980.631L1649.48 991.74L1659.58 998.605H1647.1L1643.25 1009.71Z" fill="#1AA0CA"/>
</g>
<g filter="url(#filter4_bf_258_580)">
<path d="M1017.22 939.675C1016.95 940.768 1015.4 940.768 1015.14 939.675L1014.01 934.993C1013.84 934.293 1013.04 933.956 1012.42 934.322L1008.12 936.863C1007.14 937.444 1006.05 936.29 1006.69 935.343L1009.23 931.579C1009.65 930.95 1009.31 930.091 1008.56 929.934L1003.96 928.96C1002.83 928.72 1002.83 927.104 1003.96 926.865L1008.56 925.891C1009.31 925.734 1009.65 924.875 1009.23 924.245L1006.69 920.481C1006.05 919.535 1007.14 918.38 1008.12 918.961L1012.42 921.502C1013.04 921.869 1013.84 921.532 1014.01 920.832L1015.14 916.15C1015.4 915.057 1016.95 915.057 1017.22 916.15L1018.35 920.832C1018.52 921.532 1019.31 921.869 1019.93 921.502L1024.23 918.961C1025.21 918.38 1026.3 919.535 1025.66 920.481L1023.12 924.245C1022.7 924.875 1023.05 925.734 1023.79 925.891L1028.39 926.865C1029.53 927.104 1029.53 928.72 1028.39 928.96L1023.79 929.934C1023.05 930.091 1022.7 930.95 1023.12 931.579L1025.66 935.343C1026.3 936.29 1025.21 937.444 1024.23 936.863L1019.93 934.322C1019.31 933.956 1018.52 934.293 1018.35 934.993L1017.22 939.675Z" fill="#1AA0CA"/>
</g>
<path d="M1628.96 1675.87C1628.96 1654.55 1646.97 1637.21 1669.26 1637.21C1691.55 1637.21 1709.56 1654.55 1709.56 1675.87C1709.56 1697.19 1691.55 1714.52 1669.26 1714.52C1646.97 1714.52 1628.96 1697.19 1628.96 1675.87Z" stroke="url(#paint7_linear_258_580)" stroke-width="1.60578"/>
<g filter="url(#filter5_f_258_580)">
<ellipse cx="1324.05" cy="1586.07" rx="235.371" ry="263.07" fill="#00D1FF" fill-opacity="0.04"/>
</g>
<path d="M1960.52 1922.68C1960.52 1935.28 1949.87 1945.55 1936.66 1945.55C1923.45 1945.55 1912.8 1935.28 1912.8 1922.68C1912.8 1910.07 1923.45 1899.8 1936.66 1899.8C1949.87 1899.8 1960.52 1910.07 1960.52 1922.68Z" stroke="#272727" stroke-width="1.60578"/>
<g filter="url(#filter6_f_258_580)">
<path d="M1137.89 2409.15C1137.89 2413.78 1133.98 2417.55 1129.13 2417.55C1124.29 2417.55 1120.38 2413.78 1120.38 2409.15C1120.38 2404.52 1124.29 2400.75 1129.13 2400.75C1133.98 2400.75 1137.89 2404.52 1137.89 2409.15Z" stroke="white" stroke-width="0.589462"/>
</g>
<rect x="697.802" y="1985.8" width="68.9431" height="283.095" rx="34.4716" stroke="url(#paint8_linear_258_580)" stroke-width="1.60578"/>
<rect x="860.802" y="2455.8" width="98.2864" height="244.511" rx="49.1432" stroke="url(#paint9_linear_258_580)" stroke-width="1.60578"/>
<rect x="1656.8" y="2593.84" width="97.6621" height="239.25" rx="48.8311" stroke="url(#paint10_linear_258_580)" stroke-width="1.60578"/>
<rect x="1656.8" y="2593.84" width="97.6621" height="239.25" rx="48.8311" stroke="url(#paint11_linear_258_580)" stroke-width="1.60578"/>
<rect x="1656.8" y="2593.84" width="97.6621" height="239.25" rx="48.8311" stroke="url(#paint12_linear_258_580)" stroke-width="1.60578"/>
<rect x="1656.8" y="2593.84" width="97.6621" height="239.25" rx="48.8311" stroke="url(#paint13_linear_258_580)" stroke-width="1.60578"/>
<rect x="1004.76" y="1714.94" width="75.1864" height="133.437" rx="37.5932" stroke="url(#paint14_linear_258_580)" stroke-width="1.60578"/>
<g filter="url(#filter7_f_258_580)">
<ellipse cx="1671.5" cy="2495" rx="385.5" ry="482" fill="#01B1FC" fill-opacity="0.19"/>
</g>
<g filter="url(#filter8_f_258_580)">
<path d="M1811.83 2270.09L1815.06 2279.38H1825.49L1817.05 2285.12L1820.27 2294.42L1811.83 2288.67L1803.39 2294.42L1806.62 2285.12L1798.18 2279.38H1808.61L1811.83 2270.09Z" fill="#1AA0CA" fill-opacity="0.43"/>
<path d="M1811.83 2272.54L1814.3 2279.65L1814.49 2280.19H1815.06H1822.88L1816.6 2284.46L1816.09 2284.81L1816.29 2285.39L1818.72 2292.39L1812.29 2288.01L1811.83 2287.7L1811.38 2288.01L1804.95 2292.39L1807.38 2285.39L1807.58 2284.81L1807.07 2284.46L1800.79 2280.19H1808.61H1809.18L1809.37 2279.65L1811.83 2272.54Z" stroke="#00E8DA" stroke-width="1.60578"/>
</g>
<g filter="url(#filter9_f_258_580)">
<path d="M778.328 2468.42L782.183 2479.53H794.657L784.565 2486.39L788.42 2497.5L778.328 2490.63L768.236 2497.5L772.091 2486.39L761.999 2479.53H774.473L778.328 2468.42Z" fill="#1AA0CA"/>
</g>
<g filter="url(#filter10_bf_258_580)">
<path d="M1657.14 2659.32C1657.41 2658.23 1658.96 2658.23 1659.23 2659.32L1660.36 2664.01C1660.52 2664.7 1661.32 2665.04 1661.94 2664.68L1666.24 2662.13C1667.22 2661.55 1668.31 2662.71 1667.67 2663.65L1665.13 2667.42C1664.71 2668.05 1665.06 2668.91 1665.8 2669.06L1670.4 2670.04C1671.53 2670.28 1671.53 2671.89 1670.4 2672.13L1665.8 2673.11C1665.06 2673.26 1664.71 2674.12 1665.13 2674.75L1667.67 2678.52C1668.31 2679.46 1667.22 2680.62 1666.24 2680.04L1661.94 2677.5C1661.32 2677.13 1660.52 2677.47 1660.36 2678.17L1659.23 2682.85C1658.96 2683.94 1657.41 2683.94 1657.14 2682.85L1656.01 2678.17C1655.85 2677.47 1655.05 2677.13 1654.43 2677.5L1650.13 2680.04C1649.15 2680.62 1648.06 2679.46 1648.7 2678.52L1651.24 2674.75C1651.66 2674.12 1651.31 2673.26 1650.57 2673.11L1645.97 2672.13C1644.84 2671.89 1644.84 2670.28 1645.97 2670.04L1650.57 2669.06C1651.31 2668.91 1651.66 2668.05 1651.24 2667.42L1648.7 2663.65C1648.06 2662.71 1649.15 2661.55 1650.13 2662.13L1654.43 2664.68C1655.05 2665.04 1655.85 2664.7 1656.01 2664.01L1657.14 2659.32Z" fill="#1AA0CA"/>
</g>
<path d="M1045.4 1923.13C1045.4 1944.45 1027.39 1961.79 1005.1 1961.79C982.813 1961.79 964.802 1944.45 964.802 1923.13C964.802 1901.81 982.813 1884.47 1005.1 1884.47C1027.39 1884.47 1045.4 1901.81 1045.4 1923.13Z" stroke="url(#paint15_linear_258_580)" stroke-width="1.60578"/>
<defs>
<filter id="filter0_f_258_580" x="1534.32" y="1179.3" width="21.826" height="21.1031" filterUnits="userSpaceOnUse" color-interpolation-filters="sRGB">
<feFlood flood-opacity="0" result="BackgroundImageFix"/>
<feBlend mode="normal" in="SourceGraphic" in2="BackgroundImageFix" result="shape"/>
<feGaussianBlur stdDeviation="0.930125" result="effect1_foregroundBlur_258_580"/>
</filter>
<filter id="filter1_f_258_580" x="0.215149" y="0.213135" width="1502.22" height="1566.33" filterUnits="userSpaceOnUse" color-interpolation-filters="sRGB">
<feFlood flood-opacity="0" result="BackgroundImageFix"/>
<feBlend mode="normal" in="SourceGraphic" in2="BackgroundImageFix" result="shape"/>
<feGaussianBlur stdDeviation="294.392" result="effect1_foregroundBlur_258_580"/>
</filter>
<filter id="filter2_f_258_580" x="841.913" y="1297.62" width="41.2302" height="38.2405" filterUnits="userSpaceOnUse" color-interpolation-filters="sRGB">
<feFlood flood-opacity="0" result="BackgroundImageFix"/>
<feBlend mode="normal" in="SourceGraphic" in2="BackgroundImageFix" result="shape"/>
<feGaussianBlur stdDeviation="3.47918" result="effect1_foregroundBlur_258_580"/>
</filter>
<filter id="filter3_f_258_580" x="1609.79" y="963.503" width="66.9139" height="63.3393" filterUnits="userSpaceOnUse" color-interpolation-filters="sRGB">
<feFlood flood-opacity="0" result="BackgroundImageFix"/>
<feBlend mode="normal" in="SourceGraphic" in2="BackgroundImageFix" result="shape"/>
<feGaussianBlur stdDeviation="8.56414" result="effect1_foregroundBlur_258_580"/>
</filter>
<filter id="filter4_bf_258_580" x="936.739" y="848.958" width="158.877" height="157.908" filterUnits="userSpaceOnUse" color-interpolation-filters="sRGB">
<feFlood flood-opacity="0" result="BackgroundImageFix"/>
<feGaussianBlur in="BackgroundImageFix" stdDeviation="33.1861"/>
<feComposite in2="SourceAlpha" operator="in" result="effect1_backgroundBlur_258_580"/>
<feBlend mode="normal" in="SourceGraphic" in2="effect1_backgroundBlur_258_580" result="shape"/>
<feGaussianBlur stdDeviation="3.47918" result="effect2_foregroundBlur_258_580"/>
</filter>
<filter id="filter5_f_258_580" x="518.094" y="752.414" width="1611.91" height="1667.31" filterUnits="userSpaceOnUse" color-interpolation-filters="sRGB">
<feFlood flood-opacity="0" result="BackgroundImageFix"/>
<feBlend mode="normal" in="SourceGraphic" in2="BackgroundImageFix" result="shape"/>
<feGaussianBlur stdDeviation="285.293" result="effect1_foregroundBlur_258_580"/>
</filter>
<filter id="filter6_f_258_580" x="1118.22" y="2398.6" width="21.826" height="21.1031" filterUnits="userSpaceOnUse" color-interpolation-filters="sRGB">
<feFlood flood-opacity="0" result="BackgroundImageFix"/>
<feBlend mode="normal" in="SourceGraphic" in2="BackgroundImageFix" result="shape"/>
<feGaussianBlur stdDeviation="0.930125" result="effect1_foregroundBlur_258_580"/>
</filter>
<filter id="filter7_f_258_580" x="557.999" y="1285" width="2227" height="2420" filterUnits="userSpaceOnUse" color-interpolation-filters="sRGB">
<feFlood flood-opacity="0" result="BackgroundImageFix"/>
<feBlend mode="normal" in="SourceGraphic" in2="BackgroundImageFix" result="shape"/>
<feGaussianBlur stdDeviation="364" result="effect1_foregroundBlur_258_580"/>
</filter>
<filter id="filter8_f_258_580" x="1791.22" y="2263.13" width="41.23" height="38.2405" filterUnits="userSpaceOnUse" color-interpolation-filters="sRGB">
<feFlood flood-opacity="0" result="BackgroundImageFix"/>
<feBlend mode="normal" in="SourceGraphic" in2="BackgroundImageFix" result="shape"/>
<feGaussianBlur stdDeviation="3.47918" result="effect1_foregroundBlur_258_580"/>
</filter>
<filter id="filter9_f_258_580" x="744.871" y="2451.29" width="66.9139" height="63.3393" filterUnits="userSpaceOnUse" color-interpolation-filters="sRGB">
<feFlood flood-opacity="0" result="BackgroundImageFix"/>
<feBlend mode="normal" in="SourceGraphic" in2="BackgroundImageFix" result="shape"/>
<feGaussianBlur stdDeviation="8.56414" result="effect1_foregroundBlur_258_580"/>
</filter>
<filter id="filter10_bf_258_580" x="1578.75" y="2592.13" width="158.877" height="157.909" filterUnits="userSpaceOnUse" color-interpolation-filters="sRGB">
<feFlood flood-opacity="0" result="BackgroundImageFix"/>
<feGaussianBlur in="BackgroundImageFix" stdDeviation="33.1861"/>
<feComposite in2="SourceAlpha" operator="in" result="effect1_backgroundBlur_258_580"/>
<feBlend mode="normal" in="SourceGraphic" in2="effect1_backgroundBlur_258_580" result="shape"/>
<feGaussianBlur stdDeviation="3.47918" result="effect2_foregroundBlur_258_580"/>
</filter>
<linearGradient id="paint0_linear_258_580" x1="816.709" y1="1521" x2="828.889" y2="1713.95" gradientUnits="userSpaceOnUse">
<stop stop-color="#1F1F1F" stop-opacity="0.6"/>
<stop offset="1" stop-color="#00A3FF" stop-opacity="0.33"/>
</linearGradient>
<linearGradient id="paint1_linear_258_580" x1="1680.07" y1="1283.89" x2="1694.3" y2="1531.4" gradientUnits="userSpaceOnUse">
<stop stop-opacity="0.6"/>
<stop offset="1" stop-color="#00B2FF" stop-opacity="0.28"/>
</linearGradient>
<linearGradient id="paint2_linear_258_580" x1="796.195" y1="1174.85" x2="809.915" y2="1417.09" gradientUnits="userSpaceOnUse">
<stop stop-color="white" stop-opacity="0.6"/>
<stop offset="1" stop-color="#00A3FF" stop-opacity="0.33"/>
</linearGradient>
<linearGradient id="paint3_linear_258_580" x1="796.195" y1="1174.85" x2="809.915" y2="1417.09" gradientUnits="userSpaceOnUse">
<stop stop-color="white" stop-opacity="0.6"/>
<stop offset="1" stop-color="#00A3FF" stop-opacity="0.33"/>
</linearGradient>
<linearGradient id="paint4_linear_258_580" x1="796.195" y1="1174.85" x2="809.915" y2="1417.09" gradientUnits="userSpaceOnUse">
<stop stop-color="white" stop-opacity="0.6"/>
<stop offset="1" stop-color="#00A3FF" stop-opacity="0.33"/>
</linearGradient>
<linearGradient id="paint5_linear_258_580" x1="796.195" y1="1174.85" x2="809.915" y2="1417.09" gradientUnits="userSpaceOnUse">
<stop stop-color="white" stop-opacity="0.6"/>
<stop offset="1" stop-color="#00A3FF" stop-opacity="0.33"/>
</linearGradient>
<linearGradient id="paint6_linear_258_580" x1="2051.22" y1="1933" x2="2062.61" y2="2126.05" gradientUnits="userSpaceOnUse">
<stop stop-color="#1F1F1F" stop-opacity="0.6"/>
<stop offset="1" stop-color="#00A3FF" stop-opacity="0.33"/>
</linearGradient>
<linearGradient id="paint7_linear_258_580" x1="1669.26" y1="1715.33" x2="1669.26" y2="1636.41" gradientUnits="userSpaceOnUse">
<stop stop-color="#02354E"/>
<stop offset="1" stop-color="#00B2FF"/>
</linearGradient>
<linearGradient id="paint8_linear_258_580" x1="732.483" y1="1985" x2="759.304" y2="2269.73" gradientUnits="userSpaceOnUse">
<stop stop-color="#1F1F1F" stop-opacity="0.6"/>
<stop offset="1" stop-color="#00A3FF" stop-opacity="0.33"/>
</linearGradient>
<linearGradient id="paint9_linear_258_580" x1="910.241" y1="2455" x2="924.476" y2="2702.51" gradientUnits="userSpaceOnUse">
<stop stop-opacity="0.6"/>
<stop offset="1" stop-color="#00B2FF" stop-opacity="0.28"/>
</linearGradient>
<linearGradient id="paint10_linear_258_580" x1="1705.93" y1="2593.04" x2="1719.65" y2="2835.28" gradientUnits="userSpaceOnUse">
<stop stop-color="white" stop-opacity="0.6"/>
<stop offset="1" stop-color="#00A3FF" stop-opacity="0.33"/>
</linearGradient>
<linearGradient id="paint11_linear_258_580" x1="1705.93" y1="2593.04" x2="1719.65" y2="2835.28" gradientUnits="userSpaceOnUse">
<stop stop-color="white" stop-opacity="0.6"/>
<stop offset="1" stop-color="#00A3FF" stop-opacity="0.33"/>
</linearGradient>
<linearGradient id="paint12_linear_258_580" x1="1705.93" y1="2593.04" x2="1719.65" y2="2835.28" gradientUnits="userSpaceOnUse">
<stop stop-color="white" stop-opacity="0.6"/>
<stop offset="1" stop-color="#00A3FF" stop-opacity="0.33"/>
</linearGradient>
<linearGradient id="paint13_linear_258_580" x1="1705.93" y1="2593.04" x2="1719.65" y2="2835.28" gradientUnits="userSpaceOnUse">
<stop stop-color="white" stop-opacity="0.6"/>
<stop offset="1" stop-color="#00A3FF" stop-opacity="0.33"/>
</linearGradient>
<linearGradient id="paint14_linear_258_580" x1="1042.58" y1="1714.14" x2="1048.16" y2="1850.16" gradientUnits="userSpaceOnUse">
<stop stop-color="#1F1F1F" stop-opacity="0.6"/>
<stop offset="1" stop-color="#00A3FF" stop-opacity="0.33"/>
</linearGradient>
<linearGradient id="paint15_linear_258_580" x1="1005.1" y1="1883.67" x2="1005.1" y2="1962.59" gradientUnits="userSpaceOnUse">
<stop stop-color="#02354E"/>
<stop offset="1" stop-color="#00B2FF"/>
</linearGradient>
</defs>
</svg>
