<svg width="1920" height="1080" viewBox="0 0 1920 1080" fill="none" xmlns="http://www.w3.org/2000/svg">
<g clip-path="url(#clip0_1_44)">
<rect width="1920" height="1080" fill="black"/>
<path d="M849.156 453.888H875.796C876.276 453.888 876.692 453.712 877.044 453.36C877.428 453.008 877.62 452.592 877.62 452.112C877.62 451.6 877.428 451.184 877.044 450.864C876.692 450.512 876.276 450.336 875.796 450.336H849.156V453.888ZM849.156 442.176V445.728H875.844C876.324 445.728 876.74 445.568 877.092 445.248C877.444 444.928 877.62 444.512 877.62 444C877.62 443.52 877.428 443.104 877.044 442.752C876.692 442.368 876.276 442.176 875.796 442.176H849.156ZM846.852 458.496C846.212 458.496 845.668 458.272 845.22 457.824C844.772 457.376 844.548 456.832 844.548 456.192V439.872C844.548 439.232 844.772 438.688 845.22 438.24C845.668 437.792 846.212 437.568 846.852 437.568H875.604C876.5 437.568 877.332 437.744 878.1 438.096C878.9 438.416 879.588 438.864 880.164 439.44C880.772 440.016 881.236 440.704 881.556 441.504C881.908 442.272 882.084 443.104 882.084 444C882.084 444.8 881.94 445.552 881.652 446.256C881.396 446.928 881.044 447.536 880.596 448.08C881.044 448.624 881.396 449.248 881.652 449.952C881.94 450.624 882.084 451.344 882.084 452.112C882.084 453.008 881.908 453.84 881.556 454.608C881.236 455.376 880.772 456.048 880.164 456.624C879.588 457.2 878.9 457.664 878.1 458.016C877.332 458.336 876.5 458.496 875.604 458.496H846.852ZM886.877 439.872C886.877 439.232 887.101 438.688 887.549 438.24C887.997 437.792 888.541 437.568 889.181 437.568H923.213C923.853 437.568 924.397 437.792 924.845 438.24C925.293 438.688 925.517 439.232 925.517 439.872C925.517 440.512 925.293 441.056 924.845 441.504C924.397 441.952 923.853 442.176 923.213 442.176H889.181C888.541 442.176 887.997 441.952 887.549 441.504C887.101 441.056 886.877 440.512 886.877 439.872ZM892.733 458.496C892.029 458.496 891.325 458.352 890.621 458.064C889.917 457.744 889.293 457.312 888.749 456.768C888.205 456.224 887.757 455.568 887.405 454.8C887.053 454.032 886.877 453.168 886.877 452.208V447.888C886.877 447.024 887.117 446.448 887.597 446.16C888.109 445.872 888.893 445.728 889.949 445.728H922.157C922.797 445.728 923.341 445.952 923.789 446.4C924.237 446.848 924.461 447.392 924.461 448.032C924.461 448.672 924.237 449.216 923.789 449.664C923.341 450.112 922.797 450.336 922.157 450.336H891.485V452.688C891.485 453.008 891.613 453.296 891.869 453.552C892.157 453.776 892.525 453.888 892.973 453.888H923.213C923.853 453.888 924.397 454.112 924.845 454.56C925.293 455.008 925.517 455.552 925.517 456.192C925.517 456.832 925.293 457.376 924.845 457.824C924.397 458.272 923.853 458.496 923.213 458.496H892.733ZM943.002 448.032C943.002 447.392 943.226 446.848 943.674 446.4C944.122 445.952 944.666 445.728 945.306 445.728H963.69C964.49 445.728 965.242 445.888 965.946 446.208C966.65 446.496 967.258 446.912 967.77 447.456C968.314 447.968 968.73 448.592 969.018 449.328C969.306 450.032 969.45 450.784 969.45 451.584V452.64C969.45 453.44 969.306 454.208 969.018 454.944C968.73 455.648 968.314 456.272 967.77 456.816C967.258 457.328 966.65 457.744 965.946 458.064C965.242 458.352 964.49 458.496 963.69 458.496H938.682C937.37 458.496 936.202 458.176 935.178 457.536C934.154 456.896 933.274 456.08 932.538 455.088C931.834 454.064 931.29 452.928 930.906 451.68C930.522 450.432 930.33 449.216 930.33 448.032C930.33 446.816 930.522 445.6 930.906 444.384C931.322 443.136 931.914 442.016 932.682 441.024C933.45 440 934.378 439.168 935.466 438.528C936.554 437.888 937.786 437.568 939.162 437.568H967.146C967.786 437.568 968.33 437.792 968.778 438.24C969.226 438.688 969.45 439.232 969.45 439.872C969.45 440.512 969.226 441.056 968.778 441.504C968.33 441.952 967.786 442.176 967.146 442.176H940.218C939.098 442.176 938.186 442.384 937.482 442.8C936.81 443.184 936.266 443.664 935.85 444.24C935.466 444.816 935.194 445.456 935.034 446.16C934.906 446.832 934.842 447.456 934.842 448.032C934.842 448.608 934.906 449.248 935.034 449.952C935.194 450.624 935.466 451.248 935.85 451.824C936.266 452.4 936.81 452.896 937.482 453.312C938.186 453.696 939.098 453.888 940.218 453.888H963.498C963.882 453.888 964.218 453.712 964.506 453.36C964.826 453.008 964.986 452.592 964.986 452.112C964.986 451.632 964.842 451.216 964.554 450.864C964.298 450.512 963.946 450.336 963.498 450.336H945.306C944.666 450.336 944.122 450.112 943.674 449.664C943.226 449.216 943.002 448.672 943.002 448.032ZM978.86 456.192C978.86 456.832 978.636 457.376 978.188 457.824C977.74 458.272 977.196 458.496 976.556 458.496C975.916 458.496 975.372 458.272 974.924 457.824C974.476 457.376 974.252 456.832 974.252 456.192V439.872C974.252 439.232 974.476 438.688 974.924 438.24C975.372 437.792 975.916 437.568 976.556 437.568C977.196 437.568 977.74 437.792 978.188 438.24C978.636 438.688 978.86 439.232 978.86 439.872V456.192ZM1016.36 439.872C1016.36 439.232 1016.59 438.688 1017.03 438.24C1017.48 437.792 1018.03 437.568 1018.67 437.568C1019.31 437.568 1019.85 437.792 1020.3 438.24C1020.75 438.688 1020.97 439.232 1020.97 439.872V453.84C1020.97 455.152 1020.52 456.256 1019.63 457.152C1018.76 458.048 1017.67 458.496 1016.36 458.496C1015.91 458.496 1015.47 458.432 1015.02 458.304C1014.6 458.176 1014.22 458 1013.87 457.776L991.881 444.336C991.273 443.984 990.761 443.712 990.345 443.52C989.961 443.296 989.641 443.184 989.385 443.184C988.905 443.184 988.601 443.488 988.473 444.096C988.345 444.704 988.281 445.584 988.281 446.736V456.192C988.281 456.832 988.057 457.376 987.609 457.824C987.161 458.272 986.617 458.496 985.977 458.496C985.337 458.496 984.793 458.272 984.345 457.824C983.897 457.376 983.673 456.832 983.673 456.192V442.224C983.673 440.912 984.105 439.808 984.969 438.912C985.865 438.016 986.969 437.568 988.281 437.568C988.729 437.568 989.161 437.632 989.577 437.76C990.025 437.888 990.425 438.064 990.777 438.288L1012.76 451.728C1013.37 452.08 1013.87 452.368 1014.25 452.592C1014.67 452.784 1015 452.88 1015.26 452.88C1015.74 452.88 1016.04 452.576 1016.17 451.968C1016.3 451.36 1016.36 450.48 1016.36 449.328V439.872ZM1032.15 450.336C1031.26 450.336 1030.42 450.176 1029.66 449.856C1028.89 449.504 1028.22 449.04 1027.64 448.464C1027.06 447.888 1026.6 447.216 1026.25 446.448C1025.93 445.68 1025.77 444.848 1025.77 443.952C1025.77 443.056 1025.93 442.224 1026.25 441.456C1026.6 440.688 1027.06 440.016 1027.64 439.44C1028.22 438.864 1028.89 438.416 1029.66 438.096C1030.42 437.744 1031.26 437.568 1032.15 437.568H1061.29C1061.93 437.568 1062.47 437.792 1062.92 438.24C1063.37 438.688 1063.59 439.232 1063.59 439.872C1063.59 440.512 1063.37 441.056 1062.92 441.504C1062.47 441.952 1061.93 442.176 1061.29 442.176H1032.06C1031.58 442.176 1031.14 442.352 1030.76 442.704C1030.41 443.024 1030.23 443.44 1030.23 443.952C1030.23 444.432 1030.41 444.848 1030.76 445.2C1031.14 445.552 1031.58 445.728 1032.06 445.728H1058.6C1059.5 445.728 1060.33 445.904 1061.1 446.256C1061.9 446.576 1062.58 447.024 1063.16 447.6C1063.74 448.176 1064.18 448.864 1064.5 449.664C1064.86 450.432 1065.03 451.264 1065.03 452.16C1065.03 453.056 1064.86 453.888 1064.5 454.656C1064.18 455.424 1063.74 456.096 1063.16 456.672C1062.58 457.248 1061.9 457.696 1061.1 458.016C1060.33 458.336 1059.5 458.496 1058.6 458.496H1029.51C1028.87 458.496 1028.33 458.272 1027.88 457.824C1027.43 457.376 1027.21 456.832 1027.21 456.192C1027.21 455.552 1027.43 455.008 1027.88 454.56C1028.33 454.112 1028.87 453.888 1029.51 453.888H1058.79C1059.27 453.888 1059.69 453.728 1060.04 453.408C1060.39 453.056 1060.57 452.64 1060.57 452.16C1060.57 451.648 1060.39 451.216 1060.04 450.864C1059.69 450.512 1059.27 450.336 1058.79 450.336H1032.15ZM1069.16 456.192C1069.16 455.36 1069.45 454.656 1070.02 454.08C1070.6 453.504 1071.3 453.216 1072.13 453.216C1072.97 453.216 1073.67 453.504 1074.25 454.08C1074.82 454.656 1075.11 455.36 1075.11 456.192C1075.11 457.024 1074.82 457.728 1074.25 458.304C1073.67 458.88 1072.97 459.168 1072.13 459.168C1071.3 459.168 1070.6 458.88 1070.02 458.304C1069.45 457.728 1069.16 457.024 1069.16 456.192ZM1074.44 448.032C1074.44 448.672 1074.21 449.216 1073.77 449.664C1073.32 450.112 1072.77 450.336 1072.13 450.336C1071.49 450.336 1070.95 450.112 1070.5 449.664C1070.05 449.216 1069.83 448.672 1069.83 448.032V439.872C1069.83 439.232 1070.05 438.688 1070.5 438.24C1070.95 437.792 1071.49 437.568 1072.13 437.568C1072.77 437.568 1073.32 437.792 1073.77 438.24C1074.21 438.688 1074.44 439.232 1074.44 439.872V448.032Z" fill="white"/>
<path d="M910.524 148.143C910.524 158.937 902.146 167.632 891.877 167.632C881.608 167.632 873.229 158.937 873.229 148.143C873.229 137.35 881.608 128.655 891.877 128.655C902.146 128.655 910.524 137.35 910.524 148.143Z" stroke="#272727" stroke-width="1.49912"/>
<g filter="url(#filter0_f_1_44)">
<path d="M680.197 267.257C680.197 271.219 677.122 274.411 673.352 274.411C669.582 274.411 666.507 271.219 666.507 267.257C666.507 263.295 669.582 260.103 673.352 260.103C677.122 260.103 680.197 263.295 680.197 267.257Z" stroke="white" stroke-width="0.550309"/>
</g>
<g filter="url(#filter1_f_1_44)">
<path d="M343.034 717.967C343.034 721.93 339.958 725.121 336.188 725.121C332.419 725.121 329.343 721.93 329.343 717.967C329.343 714.005 332.419 710.813 336.188 710.813C339.958 710.813 343.034 714.005 343.034 717.967Z" stroke="white" stroke-width="0.550309"/>
</g>
<rect x="1105.5" y="179.625" width="53.9916" height="241.858" rx="26.9958" stroke="url(#paint0_linear_1_44)" stroke-width="1.49912"/>
<path d="M76.7496 553.446C76.7496 537.452 89.7154 524.486 105.71 524.486C121.704 524.486 134.67 537.452 134.67 553.446V704.403C134.67 720.397 121.704 733.363 105.71 733.363C89.7154 733.363 76.7496 720.397 76.7496 704.403V553.446Z" stroke="url(#paint1_linear_1_44)" stroke-width="1.49912"/>
<rect x="1765.62" y="673.928" width="76.5807" height="204.38" rx="38.2903" stroke="url(#paint2_linear_1_44)" stroke-width="1.49912"/>
<rect x="1765.62" y="673.928" width="76.5807" height="204.38" rx="38.2903" stroke="url(#paint3_linear_1_44)" stroke-width="1.49912"/>
<rect x="1765.62" y="673.928" width="76.5807" height="204.38" rx="38.2903" stroke="url(#paint4_linear_1_44)" stroke-width="1.49912"/>
<rect x="1765.62" y="673.928" width="76.5807" height="204.38" rx="38.2903" stroke="url(#paint5_linear_1_44)" stroke-width="1.49912"/>
<rect x="203.939" y="66.8219" width="50.9502" height="122.591" rx="25.4751" stroke="url(#paint6_linear_1_44)" stroke-width="1.49912"/>
<rect x="203.939" y="66.8219" width="50.9502" height="122.591" rx="25.4751" stroke="url(#paint7_linear_1_44)" stroke-width="1.49912"/>
<rect x="203.939" y="66.8219" width="50.9502" height="122.591" rx="25.4751" stroke="url(#paint8_linear_1_44)" stroke-width="1.49912"/>
<rect x="203.939" y="66.8219" width="50.9502" height="122.591" rx="25.4751" stroke="url(#paint9_linear_1_44)" stroke-width="1.49912"/>
<rect x="1179.66" y="7.2262" width="58.9022" height="113.933" rx="29.4511" stroke="url(#paint10_linear_1_44)" stroke-width="1.49912"/>
<g filter="url(#filter2_f_1_44)">
<path d="M1202.48 314.296L1205.01 322.237H1213.22L1206.58 327.146L1209.12 335.087L1202.48 330.179L1195.84 335.087L1198.37 327.146L1191.74 322.237H1199.94L1202.48 314.296Z" fill="#00547A"/>
</g>
<g filter="url(#filter3_f_1_44)">
<path d="M1832.55 426.333L1835.08 434.274H1843.29L1836.65 439.183L1839.18 447.124L1832.55 442.216L1825.91 447.124L1828.44 439.183L1821.8 434.274H1830.01L1832.55 426.333Z" fill="#00547A"/>
</g>
<g filter="url(#filter4_bf_1_44)">
<path d="M314.061 514.789C314.292 513.745 315.78 513.745 316.012 514.789L316.7 517.887C316.85 518.566 317.631 518.887 318.216 518.511L320.863 516.811C321.759 516.235 322.814 517.273 322.252 518.178L320.539 520.939C320.178 521.521 320.496 522.286 321.164 522.44L324.303 523.161C325.337 523.399 325.337 524.872 324.303 525.109L321.164 525.831C320.496 525.985 320.178 526.75 320.539 527.332L322.252 530.093C322.814 530.998 321.759 532.036 320.863 531.46L318.216 529.759C317.631 529.384 316.85 529.705 316.7 530.384L316.012 533.482C315.78 534.526 314.292 534.526 314.061 533.482L313.373 530.384C313.222 529.705 312.442 529.384 311.857 529.759L309.21 531.46C308.314 532.036 307.259 530.998 307.82 530.093L309.534 527.332C309.895 526.75 309.576 525.985 308.908 525.831L305.769 525.109C304.735 524.872 304.735 523.399 305.769 523.161L308.908 522.44C309.576 522.286 309.895 521.521 309.534 520.939L307.82 518.178C307.259 517.273 308.314 516.235 309.21 516.811L311.857 518.511C312.442 518.887 313.222 518.566 313.373 517.887L314.061 514.789Z" fill="#1AA0CA"/>
</g>
<g filter="url(#filter5_bf_1_44)">
<path d="M1790.77 264.424C1790.98 263.354 1792.51 263.354 1792.73 264.424L1793.27 267.102C1793.41 267.812 1794.23 268.139 1794.82 267.72L1796.93 266.227C1797.8 265.609 1798.9 266.601 1798.38 267.531L1796.78 270.371C1796.46 270.944 1796.77 271.667 1797.41 271.829L1800.39 272.587C1801.4 272.842 1801.4 274.269 1800.39 274.524L1797.41 275.283C1796.77 275.444 1796.46 276.167 1796.78 276.74L1798.38 279.58C1798.9 280.51 1797.8 281.502 1796.93 280.884L1794.82 279.391C1794.23 278.972 1793.41 279.3 1793.27 280.009L1792.73 282.687C1792.51 283.757 1790.98 283.757 1790.77 282.687L1790.23 280.009C1790.09 279.3 1789.26 278.972 1788.67 279.391L1786.57 280.884C1785.7 281.502 1784.6 280.51 1785.12 279.58L1786.71 276.74C1787.04 276.167 1786.73 275.444 1786.09 275.283L1783.1 274.524C1782.1 274.269 1782.1 272.842 1783.1 272.587L1786.09 271.829C1786.73 271.667 1787.04 270.944 1786.71 270.371L1785.12 267.531C1784.6 266.601 1785.7 265.609 1786.57 266.227L1788.67 267.72C1789.26 268.139 1790.09 267.812 1790.23 267.102L1790.77 264.424Z" fill="#1AA0CA"/>
</g>
<g filter="url(#filter6_bf_1_44)">
<path d="M1110.24 265.759C1110.45 264.688 1111.98 264.688 1112.2 265.759L1112.74 268.436C1112.88 269.146 1113.7 269.473 1114.29 269.054L1116.4 267.561C1117.27 266.944 1118.37 267.935 1117.85 268.865L1116.25 271.705C1115.93 272.279 1116.24 273.001 1116.88 273.163L1119.86 273.921C1120.87 274.176 1120.87 275.603 1119.86 275.859L1116.88 276.617C1116.24 276.779 1115.93 277.501 1116.25 278.075L1117.85 280.915C1118.37 281.845 1117.27 282.836 1116.4 282.219L1114.29 280.726C1113.7 280.307 1112.88 280.634 1112.74 281.344L1112.2 284.021C1111.98 285.091 1110.45 285.091 1110.24 284.021L1109.7 281.344C1109.56 280.634 1108.73 280.307 1108.14 280.726L1106.04 282.219C1105.17 282.836 1104.07 281.845 1104.59 280.915L1106.18 278.075C1106.51 277.501 1106.2 276.779 1105.56 276.617L1102.57 275.859C1101.57 275.603 1101.57 274.176 1102.57 273.921L1105.56 273.163C1106.2 273.001 1106.51 272.279 1106.18 271.705L1104.59 268.865C1104.07 267.935 1105.17 266.944 1106.04 267.561L1108.14 269.054C1108.73 269.473 1109.56 269.146 1109.7 268.436L1110.24 265.759Z" fill="#1AA0CA"/>
</g>
<path d="M646.044 202.543C646.044 220.788 631.875 235.524 614.465 235.524C597.054 235.524 582.885 220.788 582.885 202.543C582.885 184.298 597.054 169.563 614.465 169.563C631.875 169.563 646.044 184.298 646.044 202.543Z" stroke="url(#paint11_linear_1_44)" stroke-width="1.49912"/>
<path d="M1919.25 650.868C1919.25 669.113 1905.08 683.848 1887.67 683.848C1870.26 683.848 1856.09 669.113 1856.09 650.868C1856.09 632.623 1870.26 617.887 1887.67 617.887C1905.08 617.887 1919.25 632.623 1919.25 650.868Z" stroke="url(#paint12_linear_1_44)" stroke-width="1.49912"/>
<path d="M170.066 684.225C170.066 702.47 155.898 717.206 138.487 717.206C121.076 717.206 106.908 702.47 106.908 684.225C106.908 665.98 121.076 651.244 138.487 651.244C155.898 651.244 170.066 665.98 170.066 684.225Z" stroke="url(#paint13_linear_1_44)" stroke-width="1.49912"/>
<g filter="url(#filter7_f_1_44)">
<path d="M1728.55 64.738L1731.58 74.2334H1741.39L1733.45 80.1019L1736.48 89.5974L1728.55 83.7289L1720.61 89.5974L1723.64 80.1019L1715.7 74.2334H1725.51L1728.55 64.738Z" fill="#1AA0CA"/>
</g>
<g filter="url(#filter8_f_1_44)">
<path d="M92.1267 247.537L95.1586 257.032H104.97L97.0324 262.901L100.064 272.396L92.1267 266.528L84.189 272.396L87.2209 262.901L79.2833 257.032H89.0948L92.1267 247.537Z" fill="#1AA0CA"/>
</g>
<g filter="url(#filter9_f_1_44)">
<path d="M472.384 -34L475.416 -24.5046H485.228L477.29 -18.6361L480.322 -9.14068L472.384 -15.0092L464.447 -9.14068L467.479 -18.6361L459.541 -24.5046H469.352L472.384 -34Z" fill="#1AA0CA"/>
</g>
<g filter="url(#filter10_f_1_44)">
<ellipse cx="1042.5" cy="1404.7" rx="1129.5" ry="864.702" fill="#00B2FF" fill-opacity="0.38"/>
</g>
</g>
<defs>
<filter id="filter0_f_1_44" x="664.495" y="258.091" width="17.7143" height="18.3317" filterUnits="userSpaceOnUse" color-interpolation-filters="sRGB">
<feFlood flood-opacity="0" result="BackgroundImageFix"/>
<feBlend mode="normal" in="SourceGraphic" in2="BackgroundImageFix" result="shape"/>
<feGaussianBlur stdDeviation="0.868344" result="effect1_foregroundBlur_1_44"/>
</filter>
<filter id="filter1_f_1_44" x="327.331" y="708.802" width="17.7143" height="18.3317" filterUnits="userSpaceOnUse" color-interpolation-filters="sRGB">
<feFlood flood-opacity="0" result="BackgroundImageFix"/>
<feBlend mode="normal" in="SourceGraphic" in2="BackgroundImageFix" result="shape"/>
<feGaussianBlur stdDeviation="0.868344" result="effect1_foregroundBlur_1_44"/>
</filter>
<filter id="filter2_f_1_44" x="1185.24" y="307.8" width="34.4759" height="33.7838" filterUnits="userSpaceOnUse" color-interpolation-filters="sRGB">
<feFlood flood-opacity="0" result="BackgroundImageFix"/>
<feBlend mode="normal" in="SourceGraphic" in2="BackgroundImageFix" result="shape"/>
<feGaussianBlur stdDeviation="3.24809" result="effect1_foregroundBlur_1_44"/>
</filter>
<filter id="filter3_f_1_44" x="1815.31" y="419.837" width="34.4759" height="33.7838" filterUnits="userSpaceOnUse" color-interpolation-filters="sRGB">
<feFlood flood-opacity="0" result="BackgroundImageFix"/>
<feBlend mode="normal" in="SourceGraphic" in2="BackgroundImageFix" result="shape"/>
<feGaussianBlur stdDeviation="3.24809" result="effect1_foregroundBlur_1_44"/>
</filter>
<filter id="filter4_bf_1_44" x="243.03" y="452.042" width="144.012" height="144.186" filterUnits="userSpaceOnUse" color-interpolation-filters="sRGB">
<feFlood flood-opacity="0" result="BackgroundImageFix"/>
<feGaussianBlur in="BackgroundImageFix" stdDeviation="30.9818"/>
<feComposite in2="SourceAlpha" operator="in" result="effect1_backgroundBlur_1_44"/>
<feBlend mode="normal" in="SourceGraphic" in2="effect1_backgroundBlur_1_44" result="shape"/>
<feGaussianBlur stdDeviation="3.24809" result="effect2_foregroundBlur_1_44"/>
</filter>
<filter id="filter5_bf_1_44" x="1720.39" y="201.658" width="142.722" height="143.795" filterUnits="userSpaceOnUse" color-interpolation-filters="sRGB">
<feFlood flood-opacity="0" result="BackgroundImageFix"/>
<feGaussianBlur in="BackgroundImageFix" stdDeviation="30.9818"/>
<feComposite in2="SourceAlpha" operator="in" result="effect1_backgroundBlur_1_44"/>
<feBlend mode="normal" in="SourceGraphic" in2="effect1_backgroundBlur_1_44" result="shape"/>
<feGaussianBlur stdDeviation="3.24809" result="effect2_foregroundBlur_1_44"/>
</filter>
<filter id="filter6_bf_1_44" x="1039.86" y="202.992" width="142.722" height="143.795" filterUnits="userSpaceOnUse" color-interpolation-filters="sRGB">
<feFlood flood-opacity="0" result="BackgroundImageFix"/>
<feGaussianBlur in="BackgroundImageFix" stdDeviation="30.9818"/>
<feComposite in2="SourceAlpha" operator="in" result="effect1_backgroundBlur_1_44"/>
<feBlend mode="normal" in="SourceGraphic" in2="effect1_backgroundBlur_1_44" result="shape"/>
<feGaussianBlur stdDeviation="3.24809" result="effect2_foregroundBlur_1_44"/>
</filter>
<filter id="filter7_f_1_44" x="1699.71" y="48.7474" width="57.668" height="56.8406" filterUnits="userSpaceOnUse" color-interpolation-filters="sRGB">
<feFlood flood-opacity="0" result="BackgroundImageFix"/>
<feBlend mode="normal" in="SourceGraphic" in2="BackgroundImageFix" result="shape"/>
<feGaussianBlur stdDeviation="7.9953" result="effect1_foregroundBlur_1_44"/>
</filter>
<filter id="filter8_f_1_44" x="63.2927" y="231.546" width="57.668" height="56.8406" filterUnits="userSpaceOnUse" color-interpolation-filters="sRGB">
<feFlood flood-opacity="0" result="BackgroundImageFix"/>
<feBlend mode="normal" in="SourceGraphic" in2="BackgroundImageFix" result="shape"/>
<feGaussianBlur stdDeviation="7.9953" result="effect1_foregroundBlur_1_44"/>
</filter>
<filter id="filter9_f_1_44" x="443.55" y="-49.9906" width="57.668" height="56.8406" filterUnits="userSpaceOnUse" color-interpolation-filters="sRGB">
<feFlood flood-opacity="0" result="BackgroundImageFix"/>
<feBlend mode="normal" in="SourceGraphic" in2="BackgroundImageFix" result="shape"/>
<feGaussianBlur stdDeviation="7.9953" result="effect1_foregroundBlur_1_44"/>
</filter>
<filter id="filter10_f_1_44" x="-715.157" y="-88.1571" width="3515.31" height="2985.72" filterUnits="userSpaceOnUse" color-interpolation-filters="sRGB">
<feFlood flood-opacity="0" result="BackgroundImageFix"/>
<feBlend mode="normal" in="SourceGraphic" in2="BackgroundImageFix" result="shape"/>
<feGaussianBlur stdDeviation="314.079" result="effect1_foregroundBlur_1_44"/>
</filter>
<linearGradient id="paint0_linear_1_44" x1="1132.66" y1="178.875" x2="1157.54" y2="421.87" gradientUnits="userSpaceOnUse">
<stop stop-color="#1F1F1F" stop-opacity="0.6"/>
<stop offset="1" stop-color="#00A3FF" stop-opacity="0.33"/>
</linearGradient>
<linearGradient id="paint1_linear_1_44" x1="74.9481" y1="388.066" x2="92.3719" y2="598.891" gradientUnits="userSpaceOnUse">
<stop stop-opacity="0.6"/>
<stop offset="1" stop-color="#00B2FF" stop-opacity="0.28"/>
</linearGradient>
<linearGradient id="paint2_linear_1_44" x1="1804.14" y1="673.178" x2="1816.88" y2="880.121" gradientUnits="userSpaceOnUse">
<stop stop-color="white" stop-opacity="0.6"/>
<stop offset="1" stop-color="#00A3FF" stop-opacity="0.33"/>
</linearGradient>
<linearGradient id="paint3_linear_1_44" x1="1804.14" y1="673.178" x2="1816.88" y2="880.121" gradientUnits="userSpaceOnUse">
<stop stop-color="white" stop-opacity="0.6"/>
<stop offset="1" stop-color="#00A3FF" stop-opacity="0.33"/>
</linearGradient>
<linearGradient id="paint4_linear_1_44" x1="1804.14" y1="673.178" x2="1816.88" y2="880.121" gradientUnits="userSpaceOnUse">
<stop stop-color="white" stop-opacity="0.6"/>
<stop offset="1" stop-color="#00A3FF" stop-opacity="0.33"/>
</linearGradient>
<linearGradient id="paint5_linear_1_44" x1="1804.14" y1="673.178" x2="1816.88" y2="880.121" gradientUnits="userSpaceOnUse">
<stop stop-color="white" stop-opacity="0.6"/>
<stop offset="1" stop-color="#00A3FF" stop-opacity="0.33"/>
</linearGradient>
<linearGradient id="paint6_linear_1_44" x1="229.569" y1="66.0723" x2="236.463" y2="190.895" gradientUnits="userSpaceOnUse">
<stop stop-color="white" stop-opacity="0.6"/>
<stop offset="1" stop-color="#00A3FF" stop-opacity="0.33"/>
</linearGradient>
<linearGradient id="paint7_linear_1_44" x1="229.569" y1="66.0723" x2="236.463" y2="190.895" gradientUnits="userSpaceOnUse">
<stop stop-color="white" stop-opacity="0.6"/>
<stop offset="1" stop-color="#00A3FF" stop-opacity="0.33"/>
</linearGradient>
<linearGradient id="paint8_linear_1_44" x1="229.569" y1="66.0723" x2="236.463" y2="190.895" gradientUnits="userSpaceOnUse">
<stop stop-color="white" stop-opacity="0.6"/>
<stop offset="1" stop-color="#00A3FF" stop-opacity="0.33"/>
</linearGradient>
<linearGradient id="paint9_linear_1_44" x1="229.569" y1="66.0723" x2="236.463" y2="190.895" gradientUnits="userSpaceOnUse">
<stop stop-color="#808080" stop-opacity="0.6"/>
<stop offset="1" stop-color="#00A3FF" stop-opacity="0.33"/>
</linearGradient>
<linearGradient id="paint10_linear_1_44" x1="1209.29" y1="6.47664" x2="1214.47" y2="122.714" gradientUnits="userSpaceOnUse">
<stop stop-color="#1F1F1F" stop-opacity="0.6"/>
<stop offset="1" stop-color="#00A3FF" stop-opacity="0.33"/>
</linearGradient>
<linearGradient id="paint11_linear_1_44" x1="614.465" y1="168.813" x2="614.465" y2="236.274" gradientUnits="userSpaceOnUse">
<stop stop-color="#02354E"/>
<stop offset="1" stop-color="#00B2FF"/>
</linearGradient>
<linearGradient id="paint12_linear_1_44" x1="1887.67" y1="617.137" x2="1887.67" y2="684.598" gradientUnits="userSpaceOnUse">
<stop stop-color="#02354E"/>
<stop offset="1" stop-color="#00B2FF"/>
</linearGradient>
<linearGradient id="paint13_linear_1_44" x1="138.487" y1="650.495" x2="138.487" y2="717.955" gradientUnits="userSpaceOnUse">
<stop stop-color="#02354E"/>
<stop offset="1" stop-color="#00B2FF"/>
</linearGradient>
<clipPath id="clip0_1_44">
<rect width="1920" height="1080" fill="white"/>
</clipPath>
</defs>
</svg>
