<svg width="1920" height="1080" viewBox="0 0 1920 1080" fill="none" xmlns="http://www.w3.org/2000/svg">
<g clip-path="url(#clip0_1_37)">
<rect width="1920" height="1080" fill="black"/>
<path d="M570.474 494.593C570.474 495.034 570.601 495.46 570.853 495.871C571.105 496.249 571.437 496.612 571.847 496.959C572.289 497.275 572.794 497.527 573.362 497.717C573.961 497.906 574.592 498.001 575.255 498.001H594.331C595.372 498.001 596.224 497.827 596.887 497.48C597.581 497.133 598.117 496.691 598.496 496.155C598.906 495.618 599.19 495.034 599.348 494.403C599.537 493.772 599.632 493.172 599.632 492.604V484.179C599.632 483.548 599.853 483.011 600.295 482.57C600.768 482.128 601.304 481.907 601.904 481.907C602.535 481.907 603.072 482.128 603.513 482.57C603.955 483.011 604.176 483.548 604.176 484.179V492.226C604.176 493.425 603.971 494.64 603.561 495.871C603.15 497.07 602.551 498.174 601.762 499.184C601.005 500.162 600.074 500.967 598.969 501.598C597.865 502.229 596.634 502.545 595.277 502.545H573.882C572.809 502.545 571.784 502.324 570.806 501.882C569.859 501.44 569.023 500.856 568.297 500.131C567.571 499.373 566.987 498.521 566.546 497.575C566.135 496.596 565.93 495.602 565.93 494.593C565.93 493.961 566.151 493.425 566.593 492.983C567.066 492.541 567.603 492.32 568.202 492.32C568.833 492.32 569.37 492.541 569.812 492.983C570.253 493.425 570.474 493.961 570.474 494.593ZM637.745 498.001C638.818 498.001 639.702 497.811 640.396 497.433C641.09 497.022 641.627 496.533 642.006 495.965C642.416 495.397 642.684 494.782 642.81 494.119C642.968 493.425 643.047 492.794 643.047 492.226C643.047 491.658 642.968 491.042 642.81 490.38C642.684 489.686 642.416 489.054 642.006 488.486C641.627 487.918 641.09 487.445 640.396 487.066C639.702 486.656 638.818 486.451 637.745 486.451H618.623C617.518 486.451 616.619 486.656 615.925 487.066C615.262 487.445 614.725 487.918 614.315 488.486C613.936 489.054 613.668 489.686 613.51 490.38C613.384 491.042 613.321 491.658 613.321 492.226C613.321 492.794 613.384 493.425 613.51 494.119C613.668 494.782 613.936 495.397 614.315 495.965C614.725 496.533 615.262 497.022 615.925 497.433C616.619 497.811 617.518 498.001 618.623 498.001H637.745ZM647.449 492.226C647.449 493.425 647.244 494.64 646.834 495.871C646.455 497.07 645.887 498.174 645.13 499.184C644.372 500.162 643.457 500.967 642.384 501.598C641.311 502.229 640.096 502.545 638.739 502.545H617.155C615.861 502.482 614.71 502.134 613.7 501.503C612.69 500.841 611.822 500.02 611.096 499.042C610.402 498.064 609.866 496.975 609.487 495.776C609.108 494.577 608.919 493.393 608.919 492.226C608.919 491.027 609.108 489.828 609.487 488.628C609.897 487.398 610.481 486.293 611.238 485.315C611.996 484.305 612.911 483.485 613.984 482.854C615.057 482.223 616.272 481.907 617.629 481.907H639.213C640.507 481.97 641.658 482.333 642.668 482.996C643.678 483.627 644.53 484.431 645.224 485.41C645.95 486.388 646.502 487.477 646.881 488.676C647.26 489.875 647.449 491.058 647.449 492.226ZM656.729 492.226C656.729 492.794 656.792 493.425 656.919 494.119C657.076 494.782 657.345 495.397 657.723 495.965C658.134 496.533 658.67 497.022 659.333 497.433C660.027 497.811 660.926 498.001 662.031 498.001H680.87C681.943 498.001 682.826 497.811 683.52 497.433C684.215 497.022 684.751 496.533 685.13 495.965C685.54 495.397 685.808 494.782 685.934 494.119C686.092 493.425 686.171 492.794 686.171 492.226V484.226C686.171 483.595 686.392 483.059 686.834 482.617C687.276 482.175 687.812 481.954 688.443 481.954C689.074 481.954 689.611 482.175 690.052 482.617C690.494 483.059 690.715 483.595 690.715 484.226V492.226C690.715 493.425 690.51 494.64 690.1 495.871C689.721 497.07 689.153 498.174 688.396 499.184C687.638 500.162 686.723 500.967 685.65 501.598C684.577 502.229 683.363 502.545 682.006 502.545H660.421C659.128 502.482 657.976 502.134 656.966 501.503C655.956 500.841 655.088 500.02 654.363 499.042C653.668 498.064 653.132 496.975 652.753 495.776C652.375 494.577 652.185 493.393 652.185 492.226V484.226C652.185 483.595 652.406 483.059 652.848 482.617C653.29 482.175 653.826 481.954 654.457 481.954C655.088 481.954 655.625 482.175 656.067 482.617C656.508 483.059 656.729 483.595 656.729 484.226V492.226ZM725.887 494.498C726.739 495.034 727.607 495.618 728.491 496.249C729.374 496.849 730.273 497.511 731.189 498.237C731.536 498.49 731.835 498.789 732.088 499.137C732.34 499.452 732.467 499.831 732.467 500.273C732.467 500.904 732.246 501.44 731.804 501.882C731.362 502.324 730.826 502.545 730.195 502.545C729.658 502.545 729.122 502.324 728.585 501.882C727.291 500.935 725.966 500.02 724.609 499.137C723.252 498.253 721.832 497.464 720.349 496.77C718.898 496.076 717.383 495.523 715.805 495.113C714.227 494.703 712.586 494.498 710.882 494.498H701.463C701.053 494.561 700.706 494.75 700.422 495.066C700.138 495.381 699.996 495.776 699.996 496.249V500.273C699.996 500.904 699.759 501.44 699.286 501.882C698.844 502.324 698.323 502.545 697.723 502.545C697.092 502.545 696.556 502.324 696.114 501.882C695.672 501.44 695.451 500.904 695.451 500.273V495.729C695.451 494.94 695.593 494.198 695.877 493.504C696.193 492.778 696.603 492.163 697.108 491.658C697.613 491.121 698.213 490.711 698.907 490.427C699.601 490.112 700.358 489.954 701.179 489.954H726.266C726.739 489.954 727.149 489.796 727.497 489.48C727.875 489.133 728.065 488.707 728.065 488.202C728.065 487.729 727.875 487.319 727.497 486.972C727.149 486.625 726.739 486.451 726.266 486.451H697.723C697.092 486.451 696.556 486.23 696.114 485.788C695.672 485.347 695.451 484.81 695.451 484.179C695.451 483.548 695.672 483.011 696.114 482.57C696.556 482.128 697.092 481.907 697.723 481.907H726.077C726.96 481.907 727.781 482.081 728.538 482.428C729.327 482.743 730.005 483.185 730.573 483.753C731.173 484.321 731.63 484.984 731.946 485.741C732.293 486.498 732.467 487.319 732.467 488.202C732.467 489.086 732.293 489.906 731.946 490.664C731.63 491.421 731.173 492.084 730.573 492.652C730.005 493.22 729.327 493.677 728.538 494.025C727.781 494.34 726.96 494.498 726.077 494.498H725.887ZM769.427 484.179C769.427 483.548 769.648 483.011 770.089 482.57C770.531 482.128 771.068 481.907 771.699 481.907C772.33 481.907 772.866 482.128 773.308 482.57C773.75 483.011 773.971 483.548 773.971 484.179V497.953C773.971 499.247 773.529 500.336 772.645 501.219C771.793 502.103 770.72 502.545 769.427 502.545C768.985 502.545 768.543 502.482 768.101 502.355C767.691 502.229 767.312 502.056 766.965 501.835L745.286 488.581C744.687 488.234 744.182 487.966 743.772 487.776C743.393 487.556 743.077 487.445 742.825 487.445C742.352 487.445 742.052 487.745 741.926 488.344C741.799 488.944 741.736 489.812 741.736 490.948V500.273C741.736 500.904 741.515 501.44 741.074 501.882C740.632 502.324 740.095 502.545 739.464 502.545C738.833 502.545 738.297 502.324 737.855 501.882C737.413 501.44 737.192 500.904 737.192 500.273V486.498C737.192 485.205 737.618 484.116 738.47 483.232C739.354 482.349 740.442 481.907 741.736 481.907C742.178 481.907 742.604 481.97 743.014 482.096C743.456 482.223 743.851 482.396 744.198 482.617L765.877 495.871C766.476 496.218 766.965 496.502 767.344 496.723C767.754 496.912 768.086 497.007 768.338 497.007C768.811 497.007 769.111 496.707 769.237 496.107C769.364 495.508 769.427 494.64 769.427 493.504V484.179ZM778.702 484.179C778.702 483.548 778.923 483.011 779.365 482.57C779.806 482.128 780.343 481.907 780.974 481.907H814.534C815.165 481.907 815.701 482.128 816.143 482.57C816.585 483.011 816.806 483.548 816.806 484.179C816.806 484.81 816.585 485.347 816.143 485.788C815.701 486.23 815.165 486.451 814.534 486.451H780.974C780.343 486.451 779.806 486.23 779.365 485.788C778.923 485.347 778.702 484.81 778.702 484.179ZM784.477 502.545C783.782 502.545 783.088 502.403 782.394 502.119C781.7 501.803 781.084 501.377 780.548 500.841C780.011 500.304 779.57 499.657 779.223 498.9C778.875 498.143 778.702 497.291 778.702 496.344V492.084C778.702 491.232 778.939 490.664 779.412 490.38C779.917 490.096 780.69 489.954 781.731 489.954H813.492C814.123 489.954 814.66 490.175 815.102 490.616C815.543 491.058 815.764 491.595 815.764 492.226C815.764 492.857 815.543 493.393 815.102 493.835C814.66 494.277 814.123 494.498 813.492 494.498H783.246V496.817C783.246 497.133 783.372 497.417 783.625 497.669C783.909 497.89 784.272 498.001 784.713 498.001H814.534C815.165 498.001 815.701 498.221 816.143 498.663C816.585 499.105 816.806 499.641 816.806 500.273C816.806 500.904 816.585 501.44 816.143 501.882C815.701 502.324 815.165 502.545 814.534 502.545H784.477ZM842.852 500.273C842.852 500.904 842.631 501.44 842.19 501.882C841.748 502.324 841.211 502.545 840.58 502.545C839.949 502.545 839.413 502.324 838.971 501.882C838.529 501.44 838.308 500.904 838.308 500.273V494.498C837.109 494.498 835.942 494.34 834.806 494.025C833.67 493.709 832.47 493.22 831.208 492.557C829.978 491.863 828.652 490.979 827.232 489.906C825.812 488.834 824.219 487.524 822.451 485.978C822.199 485.757 821.978 485.489 821.789 485.173C821.631 484.858 821.552 484.526 821.552 484.179C821.552 483.548 821.773 483.011 822.215 482.57C822.657 482.128 823.193 481.907 823.824 481.907C824.14 481.907 824.424 481.97 824.676 482.096C824.929 482.223 825.181 482.38 825.433 482.57C827.453 484.337 829.141 485.725 830.498 486.735C831.887 487.713 833.117 488.439 834.19 488.912C835.295 489.386 836.336 489.686 837.314 489.812C838.293 489.906 839.397 489.954 840.628 489.954C841.858 489.954 842.947 489.906 843.894 489.812C844.84 489.717 845.85 489.433 846.923 488.96C847.996 488.486 849.211 487.761 850.568 486.782C851.956 485.773 853.676 484.368 855.727 482.57C856.264 482.128 856.8 481.907 857.337 481.907C857.968 481.907 858.504 482.128 858.946 482.57C859.388 483.011 859.609 483.548 859.609 484.179C859.609 484.526 859.514 484.858 859.325 485.173C859.167 485.489 858.962 485.757 858.709 485.978C856.974 487.492 855.38 488.802 853.928 489.906C852.477 490.979 851.104 491.863 849.81 492.557C848.548 493.22 847.333 493.709 846.166 494.025C845.03 494.34 843.925 494.498 842.852 494.498V500.273ZM920.503 481.907C921.134 481.907 921.671 482.128 922.113 482.57C922.554 483.011 922.775 483.548 922.775 484.179C922.775 484.81 922.554 485.347 922.113 485.788C921.671 486.23 921.134 486.451 920.503 486.451H906.492V500.273C906.492 500.904 906.272 501.44 905.83 501.882C905.388 502.324 904.852 502.545 904.22 502.545C903.589 502.545 903.053 502.324 902.611 501.882C902.169 501.44 901.948 500.904 901.948 500.273V486.451H887.748C887.18 486.388 886.691 486.151 886.281 485.741C885.871 485.299 885.666 484.779 885.666 484.179C885.666 483.548 885.886 483.011 886.328 482.57C886.77 482.128 887.306 481.907 887.938 481.907H920.503ZM955.123 498.001C956.196 498.001 957.08 497.811 957.774 497.433C958.468 497.022 959.005 496.533 959.383 495.965C959.794 495.397 960.062 494.782 960.188 494.119C960.346 493.425 960.425 492.794 960.425 492.226C960.425 491.658 960.346 491.042 960.188 490.38C960.062 489.686 959.794 489.054 959.383 488.486C959.005 487.918 958.468 487.445 957.774 487.066C957.08 486.656 956.196 486.451 955.123 486.451H936C934.896 486.451 933.997 486.656 933.302 487.066C932.64 487.445 932.103 487.918 931.693 488.486C931.314 489.054 931.046 489.686 930.888 490.38C930.762 491.042 930.699 491.658 930.699 492.226C930.699 492.794 930.762 493.425 930.888 494.119C931.046 494.782 931.314 495.397 931.693 495.965C932.103 496.533 932.64 497.022 933.302 497.433C933.997 497.811 934.896 498.001 936 498.001H955.123ZM964.827 492.226C964.827 493.425 964.622 494.64 964.211 495.871C963.833 497.07 963.265 498.174 962.507 499.184C961.75 500.162 960.835 500.967 959.762 501.598C958.689 502.229 957.474 502.545 956.117 502.545H934.533C933.239 502.482 932.087 502.134 931.078 501.503C930.068 500.841 929.2 500.02 928.474 499.042C927.78 498.064 927.244 496.975 926.865 495.776C926.486 494.577 926.297 493.393 926.297 492.226C926.297 491.027 926.486 489.828 926.865 488.628C927.275 487.398 927.859 486.293 928.616 485.315C929.374 484.305 930.289 483.485 931.362 482.854C932.435 482.223 933.649 481.907 935.006 481.907H956.591C957.884 481.97 959.036 482.333 960.046 482.996C961.056 483.627 961.908 484.431 962.602 485.41C963.328 486.388 963.88 487.477 964.259 488.676C964.637 489.875 964.827 491.058 964.827 492.226ZM1007.96 500.273C1007.96 499.452 1008.24 498.758 1008.81 498.19C1009.38 497.622 1010.07 497.338 1010.89 497.338C1011.72 497.338 1012.41 497.622 1012.98 498.19C1013.55 498.758 1013.83 499.452 1013.83 500.273C1013.83 501.093 1013.55 501.787 1012.98 502.355C1012.41 502.923 1011.72 503.207 1010.89 503.207C1010.07 503.207 1009.38 502.923 1008.81 502.355C1008.24 501.787 1007.96 501.093 1007.96 500.273ZM995.417 500.273C995.417 500.904 995.196 501.44 994.754 501.882C994.312 502.324 993.776 502.545 993.145 502.545C992.514 502.545 991.977 502.324 991.535 501.882C991.094 501.44 990.873 500.904 990.873 500.273V484.179C990.873 483.548 991.094 483.011 991.535 482.57C991.977 482.128 992.514 481.907 993.145 481.907C993.46 481.907 993.744 481.97 993.997 482.096C994.249 482.223 994.502 482.38 994.754 482.57C996.774 484.337 998.509 485.725 999.961 486.735C1001.44 487.745 1002.78 488.502 1003.98 489.007C1005.21 489.512 1006.37 489.828 1007.44 489.954C1008.51 490.08 1009.66 490.143 1010.89 490.143C1012.13 490.143 1013.26 490.096 1014.3 490.001C1015.38 489.875 1016.5 489.559 1017.66 489.054C1018.86 488.55 1020.19 487.792 1021.64 486.782C1023.12 485.773 1024.89 484.368 1026.94 482.57C1027.48 482.128 1028.01 481.907 1028.55 481.907C1029.18 481.907 1029.72 482.128 1030.16 482.57C1030.6 483.011 1030.82 483.548 1030.82 484.179V500.273C1030.82 500.904 1030.6 501.44 1030.16 501.882C1029.72 502.324 1029.18 502.545 1028.55 502.545C1027.92 502.545 1027.38 502.324 1026.94 501.882C1026.5 501.44 1026.28 500.904 1026.28 500.273V489.054C1024.86 490.19 1023.49 491.137 1022.16 491.894C1020.87 492.652 1019.59 493.267 1018.33 493.741C1017.1 494.182 1015.86 494.498 1014.63 494.687C1013.4 494.877 1012.16 494.971 1010.89 494.971C1009.54 494.971 1008.23 494.877 1006.97 494.687C1005.74 494.498 1004.49 494.182 1003.23 493.741C1002 493.267 1000.73 492.652 999.44 491.894C998.178 491.137 996.837 490.19 995.417 489.054V500.273ZM1035.57 484.179C1035.57 483.548 1035.79 483.011 1036.23 482.57C1036.68 482.128 1037.21 481.907 1037.84 481.907H1071.4C1072.03 481.907 1072.57 482.128 1073.01 482.57C1073.45 483.011 1073.68 483.548 1073.68 484.179C1073.68 484.81 1073.45 485.347 1073.01 485.788C1072.57 486.23 1072.03 486.451 1071.4 486.451H1037.84C1037.21 486.451 1036.68 486.23 1036.23 485.788C1035.79 485.347 1035.57 484.81 1035.57 484.179ZM1041.35 502.545C1040.65 502.545 1039.96 502.403 1039.26 502.119C1038.57 501.803 1037.95 501.377 1037.42 500.841C1036.88 500.304 1036.44 499.657 1036.09 498.9C1035.75 498.143 1035.57 497.291 1035.57 496.344V492.084C1035.57 491.232 1035.81 490.664 1036.28 490.38C1036.79 490.096 1037.56 489.954 1038.6 489.954H1070.36C1070.99 489.954 1071.53 490.175 1071.97 490.616C1072.41 491.058 1072.63 491.595 1072.63 492.226C1072.63 492.857 1072.41 493.393 1071.97 493.835C1071.53 494.277 1070.99 494.498 1070.36 494.498H1040.12V496.817C1040.12 497.133 1040.24 497.417 1040.49 497.669C1040.78 497.89 1041.14 498.001 1041.58 498.001H1071.4C1072.03 498.001 1072.57 498.221 1073.01 498.663C1073.45 499.105 1073.68 499.641 1073.68 500.273C1073.68 500.904 1073.45 501.44 1073.01 501.882C1072.57 502.324 1072.03 502.545 1071.4 502.545H1041.35ZM1113.26 481.907C1113.89 481.907 1114.43 482.128 1114.87 482.57C1115.31 483.011 1115.53 483.548 1115.53 484.179C1115.53 484.81 1115.31 485.347 1114.87 485.788C1114.43 486.23 1113.89 486.451 1113.26 486.451H1099.25V500.273C1099.25 500.904 1099.03 501.44 1098.59 501.882C1098.14 502.324 1097.61 502.545 1096.98 502.545C1096.35 502.545 1095.81 502.324 1095.37 501.882C1094.93 501.44 1094.7 500.904 1094.7 500.273V486.451H1080.5C1079.94 486.388 1079.45 486.151 1079.04 485.741C1078.63 485.299 1078.42 484.779 1078.42 484.179C1078.42 483.548 1078.64 483.011 1079.08 482.57C1079.53 482.128 1080.06 481.907 1080.69 481.907H1113.26ZM1118.36 501.693C1117.89 502.261 1117.3 502.545 1116.61 502.545C1115.98 502.545 1115.44 502.324 1115 501.882C1114.56 501.44 1114.34 500.904 1114.34 500.273C1114.34 499.705 1114.5 499.247 1114.81 498.9L1126.31 483.422C1126.85 482.696 1127.56 482.112 1128.44 481.67C1129.33 481.197 1130.27 480.96 1131.28 480.96C1132.23 480.96 1133.13 481.165 1133.98 481.576C1134.83 481.986 1135.53 482.554 1136.06 483.28L1147.57 498.663C1147.76 498.884 1147.91 499.137 1148.04 499.421C1148.17 499.673 1148.23 499.957 1148.23 500.273C1148.23 500.904 1148.01 501.44 1147.57 501.882C1147.13 502.324 1146.59 502.545 1145.96 502.545C1145.2 502.545 1144.6 502.245 1144.16 501.645L1133.13 486.924C1132.91 486.672 1132.63 486.404 1132.28 486.12C1131.96 485.804 1131.63 485.646 1131.28 485.646C1130.94 485.646 1130.59 485.804 1130.24 486.12C1129.93 486.404 1129.67 486.672 1129.49 486.924L1118.36 501.693ZM1178.13 482.759C1178.61 482.191 1179.19 481.907 1179.89 481.907C1180.52 481.907 1181.05 482.128 1181.5 482.57C1181.94 483.011 1182.16 483.548 1182.16 484.179C1182.16 484.747 1182 485.205 1181.69 485.552L1181.64 485.599L1170.18 501.03C1169.61 501.756 1168.89 502.355 1168.01 502.829C1167.15 503.27 1166.22 503.491 1165.21 503.491C1164.27 503.491 1163.37 503.286 1162.51 502.876C1161.69 502.466 1161 501.898 1160.43 501.172L1148.93 485.788C1148.74 485.568 1148.58 485.331 1148.46 485.078C1148.33 484.794 1148.27 484.495 1148.27 484.179C1148.27 483.548 1148.49 483.011 1148.93 482.57C1149.37 482.128 1149.91 481.907 1150.54 481.907C1151.3 481.907 1151.9 482.207 1152.34 482.806L1163.37 497.527C1163.59 497.78 1163.86 498.064 1164.17 498.379C1164.52 498.663 1164.87 498.805 1165.21 498.805C1165.56 498.805 1165.89 498.663 1166.21 498.379C1166.55 498.064 1166.82 497.78 1167.01 497.527L1178.13 482.759ZM1186.91 484.179C1186.91 483.548 1187.13 483.011 1187.57 482.57C1188.02 482.128 1188.55 481.907 1189.18 481.907H1222.74C1223.37 481.907 1223.91 482.128 1224.35 482.57C1224.79 483.011 1225.01 483.548 1225.01 484.179C1225.01 484.81 1224.79 485.347 1224.35 485.788C1223.91 486.23 1223.37 486.451 1222.74 486.451H1189.18C1188.55 486.451 1188.02 486.23 1187.57 485.788C1187.13 485.347 1186.91 484.81 1186.91 484.179ZM1192.69 502.545C1191.99 502.545 1191.3 502.403 1190.6 502.119C1189.91 501.803 1189.29 501.377 1188.76 500.841C1188.22 500.304 1187.78 499.657 1187.43 498.9C1187.08 498.143 1186.91 497.291 1186.91 496.344V492.084C1186.91 491.232 1187.15 490.664 1187.62 490.38C1188.13 490.096 1188.9 489.954 1189.94 489.954H1221.7C1222.33 489.954 1222.87 490.175 1223.31 490.616C1223.75 491.058 1223.97 491.595 1223.97 492.226C1223.97 492.857 1223.75 493.393 1223.31 493.835C1222.87 494.277 1222.33 494.498 1221.7 494.498H1191.46V496.817C1191.46 497.133 1191.58 497.417 1191.83 497.669C1192.12 497.89 1192.48 498.001 1192.92 498.001H1222.74C1223.37 498.001 1223.91 498.221 1224.35 498.663C1224.79 499.105 1225.01 499.641 1225.01 500.273C1225.01 500.904 1224.79 501.44 1224.35 501.882C1223.91 502.324 1223.37 502.545 1222.74 502.545H1192.69ZM1260.2 494.498C1261.05 495.034 1261.92 495.618 1262.8 496.249C1263.68 496.849 1264.58 497.511 1265.5 498.237C1265.85 498.49 1266.15 498.789 1266.4 499.137C1266.65 499.452 1266.78 499.831 1266.78 500.273C1266.78 500.904 1266.56 501.44 1266.11 501.882C1265.67 502.324 1265.14 502.545 1264.5 502.545C1263.97 502.545 1263.43 502.324 1262.89 501.882C1261.6 500.935 1260.28 500.02 1258.92 499.137C1257.56 498.253 1256.14 497.464 1254.66 496.77C1253.21 496.076 1251.69 495.523 1250.11 495.113C1248.54 494.703 1246.9 494.498 1245.19 494.498H1235.77C1235.36 494.561 1235.02 494.75 1234.73 495.066C1234.45 495.381 1234.31 495.776 1234.31 496.249V500.273C1234.31 500.904 1234.07 501.44 1233.6 501.882C1233.15 502.324 1232.63 502.545 1232.03 502.545C1231.4 502.545 1230.87 502.324 1230.42 501.882C1229.98 501.44 1229.76 500.904 1229.76 500.273V495.729C1229.76 494.94 1229.9 494.198 1230.19 493.504C1230.5 492.778 1230.91 492.163 1231.42 491.658C1231.92 491.121 1232.52 490.711 1233.22 490.427C1233.91 490.112 1234.67 489.954 1235.49 489.954H1260.58C1261.05 489.954 1261.46 489.796 1261.81 489.48C1262.18 489.133 1262.37 488.707 1262.37 488.202C1262.37 487.729 1262.18 487.319 1261.81 486.972C1261.46 486.625 1261.05 486.451 1260.58 486.451H1232.03C1231.4 486.451 1230.87 486.23 1230.42 485.788C1229.98 485.347 1229.76 484.81 1229.76 484.179C1229.76 483.548 1229.98 483.011 1230.42 482.57C1230.87 482.128 1231.4 481.907 1232.03 481.907H1260.39C1261.27 481.907 1262.09 482.081 1262.85 482.428C1263.64 482.743 1264.31 483.185 1264.88 483.753C1265.48 484.321 1265.94 484.984 1266.26 485.741C1266.6 486.498 1266.78 487.319 1266.78 488.202C1266.78 489.086 1266.6 489.906 1266.26 490.664C1265.94 491.421 1265.48 492.084 1264.88 492.652C1264.31 493.22 1263.64 493.677 1262.85 494.025C1262.09 494.34 1261.27 494.498 1260.39 494.498H1260.2ZM1277.8 494.498C1276.91 494.498 1276.09 494.34 1275.34 494.025C1274.58 493.677 1273.92 493.22 1273.35 492.652C1272.78 492.084 1272.32 491.421 1271.98 490.664C1271.66 489.906 1271.5 489.086 1271.5 488.202C1271.5 487.319 1271.66 486.498 1271.98 485.741C1272.32 484.984 1272.78 484.321 1273.35 483.753C1273.92 483.185 1274.58 482.743 1275.34 482.428C1276.09 482.081 1276.91 481.907 1277.8 481.907H1306.53C1307.16 481.907 1307.7 482.128 1308.14 482.57C1308.58 483.011 1308.8 483.548 1308.8 484.179C1308.8 484.81 1308.58 485.347 1308.14 485.788C1307.7 486.23 1307.16 486.451 1306.53 486.451H1277.7C1277.23 486.451 1276.8 486.625 1276.42 486.972C1276.08 487.287 1275.9 487.698 1275.9 488.202C1275.9 488.676 1276.08 489.086 1276.42 489.433C1276.8 489.78 1277.23 489.954 1277.7 489.954H1303.88C1304.76 489.954 1305.58 490.127 1306.34 490.474C1307.13 490.79 1307.81 491.232 1308.38 491.8C1308.94 492.368 1309.38 493.046 1309.7 493.835C1310.05 494.593 1310.22 495.413 1310.22 496.297C1310.22 497.18 1310.05 498.001 1309.7 498.758C1309.38 499.515 1308.94 500.178 1308.38 500.746C1307.81 501.314 1307.13 501.756 1306.34 502.071C1305.58 502.387 1304.76 502.545 1303.88 502.545H1275.19C1274.56 502.545 1274.03 502.324 1273.58 501.882C1273.14 501.44 1272.92 500.904 1272.92 500.273C1272.92 499.641 1273.14 499.105 1273.58 498.663C1274.03 498.221 1274.56 498.001 1275.19 498.001H1304.07C1304.54 498.001 1304.95 497.843 1305.3 497.527C1305.65 497.18 1305.82 496.77 1305.82 496.297C1305.82 495.792 1305.65 495.366 1305.3 495.019C1304.95 494.671 1304.54 494.498 1304.07 494.498H1277.8ZM1314.95 484.179C1314.95 483.548 1315.17 483.011 1315.62 482.57C1316.06 482.128 1316.59 481.907 1317.23 481.907H1350.78C1351.42 481.907 1351.95 482.128 1352.39 482.57C1352.84 483.011 1353.06 483.548 1353.06 484.179C1353.06 484.81 1352.84 485.347 1352.39 485.788C1351.95 486.23 1351.42 486.451 1350.78 486.451H1317.23C1316.59 486.451 1316.06 486.23 1315.62 485.788C1315.17 485.347 1314.95 484.81 1314.95 484.179ZM1320.73 502.545C1320.03 502.545 1319.34 502.403 1318.65 502.119C1317.95 501.803 1317.34 501.377 1316.8 500.841C1316.26 500.304 1315.82 499.657 1315.47 498.9C1315.13 498.143 1314.95 497.291 1314.95 496.344V492.084C1314.95 491.232 1315.19 490.664 1315.66 490.38C1316.17 490.096 1316.94 489.954 1317.98 489.954H1349.74C1350.37 489.954 1350.91 490.175 1351.35 490.616C1351.79 491.058 1352.02 491.595 1352.02 492.226C1352.02 492.857 1351.79 493.393 1351.35 493.835C1350.91 494.277 1350.37 494.498 1349.74 494.498H1319.5V496.817C1319.5 497.133 1319.62 497.417 1319.88 497.669C1320.16 497.89 1320.52 498.001 1320.96 498.001H1350.78C1351.42 498.001 1351.95 498.221 1352.39 498.663C1352.84 499.105 1353.06 499.641 1353.06 500.273C1353.06 500.904 1352.84 501.44 1352.39 501.882C1351.95 502.324 1351.42 502.545 1350.78 502.545H1320.73Z" fill="white"/>
<g filter="url(#filter0_d_1_37)">
<circle cx="992.412" cy="417.294" r="35.2941" fill="url(#paint0_linear_1_37)"/>
</g>
<path d="M853.184 421.322C853.184 421.718 853.296 422.099 853.522 422.466C853.748 422.805 854.045 423.129 854.412 423.44C854.807 423.722 855.259 423.948 855.767 424.118C856.304 424.287 856.868 424.372 857.461 424.372H874.529C875.461 424.372 876.224 424.216 876.816 423.906C877.438 423.595 877.918 423.2 878.256 422.72C878.624 422.24 878.878 421.718 879.019 421.153C879.188 420.588 879.273 420.052 879.273 419.544V412.005C879.273 411.44 879.471 410.96 879.866 410.565C880.289 410.169 880.769 409.972 881.306 409.972C881.871 409.972 882.351 410.169 882.746 410.565C883.141 410.96 883.339 411.44 883.339 412.005V419.205C883.339 420.278 883.155 421.365 882.788 422.466C882.421 423.539 881.885 424.527 881.179 425.431C880.501 426.306 879.668 427.026 878.68 427.591C877.692 428.155 876.591 428.438 875.376 428.438H856.233C855.273 428.438 854.355 428.24 853.48 427.845C852.633 427.449 851.885 426.927 851.235 426.278C850.586 425.6 850.064 424.838 849.668 423.991C849.301 423.115 849.118 422.226 849.118 421.322C849.118 420.758 849.315 420.278 849.711 419.882C850.134 419.487 850.614 419.289 851.151 419.289C851.715 419.289 852.195 419.487 852.591 419.882C852.986 420.278 853.184 420.758 853.184 421.322ZM899.044 423.864C899.044 423.129 899.298 422.508 899.806 422C900.314 421.492 900.936 421.238 901.67 421.238C902.404 421.238 903.025 421.492 903.533 422C904.041 422.508 904.296 423.129 904.296 423.864C904.296 424.598 904.041 425.219 903.533 425.727C903.025 426.235 902.404 426.489 901.67 426.489C900.936 426.489 900.314 426.235 899.806 425.727C899.298 425.219 899.044 424.598 899.044 423.864ZM890.107 427.675C889.684 428.184 889.161 428.438 888.54 428.438C887.976 428.438 887.496 428.24 887.1 427.845C886.705 427.449 886.507 426.969 886.507 426.405C886.507 425.896 886.649 425.487 886.931 425.176L897.223 411.327C897.703 410.678 898.338 410.155 899.129 409.76C899.919 409.336 900.766 409.125 901.67 409.125C902.517 409.125 903.321 409.308 904.084 409.675C904.846 410.042 905.467 410.551 905.947 411.2L916.239 424.965C916.409 425.162 916.55 425.388 916.663 425.642C916.776 425.868 916.832 426.122 916.832 426.405C916.832 426.969 916.634 427.449 916.239 427.845C915.844 428.24 915.364 428.438 914.799 428.438C914.121 428.438 913.585 428.169 913.19 427.633L903.321 414.461C903.124 414.235 902.87 413.995 902.559 413.741C902.277 413.459 901.98 413.318 901.67 413.318C901.359 413.318 901.049 413.459 900.738 413.741C900.456 413.995 900.23 414.235 900.06 414.461L890.107 427.675ZM949.927 419.205C949.927 418.696 949.856 418.146 949.715 417.553C949.602 416.932 949.362 416.367 948.995 415.859C948.656 415.351 948.176 414.927 947.555 414.588C946.934 414.221 946.143 414.038 945.183 414.038H929.894C928.906 414.038 928.101 414.221 927.48 414.588C926.887 414.927 926.407 415.351 926.04 415.859C925.701 416.367 925.461 416.932 925.32 417.553C925.207 418.146 925.15 418.696 925.15 419.205V426.405C925.15 426.969 924.953 427.449 924.558 427.845C924.162 428.24 923.682 428.438 923.118 428.438C922.553 428.438 922.073 428.24 921.678 427.845C921.282 427.449 921.085 426.969 921.085 426.405V419.205C921.085 418.132 921.254 417.059 921.593 415.986C921.96 414.885 922.482 413.896 923.16 413.021C923.838 412.118 924.656 411.384 925.616 410.819C926.576 410.254 927.663 409.972 928.878 409.972H946.623C947.781 410.028 948.812 410.353 949.715 410.946C950.619 411.511 951.381 412.231 952.002 413.106C952.652 413.981 953.146 414.955 953.485 416.028C953.823 417.101 953.993 418.16 953.993 419.205V426.405C953.993 426.969 953.795 427.449 953.4 427.845C953.005 428.24 952.525 428.438 951.96 428.438C951.395 428.438 950.915 428.24 950.52 427.845C950.125 427.449 949.927 426.969 949.927 426.405V419.205ZM1044.59 426.405C1044.59 425.671 1044.85 425.049 1045.36 424.541C1045.86 424.033 1046.49 423.779 1047.22 423.779C1047.95 423.779 1048.58 424.033 1049.08 424.541C1049.59 425.049 1049.85 425.671 1049.85 426.405C1049.85 427.139 1049.59 427.76 1049.08 428.268C1048.58 428.776 1047.95 429.031 1047.22 429.031C1046.49 429.031 1045.86 428.776 1045.36 428.268C1044.85 427.76 1044.59 427.139 1044.59 426.405ZM1047.22 417.341C1048.32 417.341 1049.3 417.299 1050.14 417.214C1050.99 417.101 1051.89 416.819 1052.85 416.367C1053.81 415.915 1054.9 415.238 1056.11 414.334C1057.36 413.431 1058.9 412.174 1060.73 410.565C1061.21 410.169 1061.69 409.972 1062.17 409.972C1062.74 409.972 1063.22 410.169 1063.61 410.565C1064.01 410.96 1064.2 411.44 1064.2 412.005C1064.2 412.315 1064.12 412.612 1063.95 412.894C1063.81 413.176 1063.62 413.416 1063.4 413.614C1061.62 415.195 1060.02 416.508 1058.61 417.553C1057.23 418.569 1055.92 419.388 1054.67 420.009C1053.43 420.602 1052.22 421.026 1051.03 421.28C1049.85 421.534 1048.58 421.661 1047.22 421.661C1045.78 421.661 1044.45 421.548 1043.24 421.322C1042.05 421.068 1040.85 420.631 1039.64 420.009C1038.42 419.388 1037.13 418.569 1035.74 417.553C1034.36 416.508 1032.76 415.195 1030.96 413.614C1030.73 413.416 1030.53 413.176 1030.36 412.894C1030.22 412.612 1030.15 412.315 1030.15 412.005C1030.15 411.44 1030.35 410.96 1030.74 410.565C1031.14 410.169 1031.62 409.972 1032.18 409.972C1032.47 409.972 1032.72 410.028 1032.95 410.141C1033.17 410.254 1033.4 410.395 1033.62 410.565C1035.43 412.146 1036.94 413.388 1038.16 414.292C1039.4 415.195 1040.5 415.873 1041.46 416.325C1042.45 416.776 1043.38 417.059 1044.26 417.172C1045.13 417.285 1046.12 417.341 1047.22 417.341Z" fill="white"/>
<path d="M984.951 410.734C985.374 410.226 985.897 409.972 986.518 409.972C987.083 409.972 987.563 410.169 987.958 410.565C988.353 410.96 988.551 411.44 988.551 412.005C988.551 412.513 988.41 412.922 988.127 413.233L988.085 413.275L977.836 427.082C977.327 427.732 976.678 428.268 975.887 428.692C975.125 429.087 974.292 429.285 973.388 429.285C972.541 429.285 971.737 429.101 970.974 428.734C970.24 428.367 969.619 427.859 969.111 427.209L958.819 413.445C958.65 413.247 958.508 413.035 958.396 412.809C958.283 412.555 958.226 412.287 958.226 412.005C958.226 411.44 958.424 410.96 958.819 410.565C959.214 410.169 959.694 409.972 960.259 409.972C960.937 409.972 961.473 410.24 961.868 410.776L971.737 423.948C971.934 424.174 972.174 424.428 972.457 424.711C972.767 424.965 973.078 425.092 973.388 425.092C973.699 425.092 973.996 424.965 974.278 424.711C974.588 424.428 974.828 424.174 974.998 423.948L984.951 410.734ZM1025.92 426.405C1025.92 426.969 1025.73 427.449 1025.33 427.845C1024.94 428.24 1024.46 428.438 1023.89 428.438C1023.61 428.438 1023.35 428.381 1023.13 428.268C1022.9 428.155 1022.69 428.014 1022.49 427.845C1022.32 427.675 1022.2 427.534 1022.11 427.421C1020.95 425.981 1019.75 424.852 1018.51 424.033C1017.3 423.214 1016.01 422.593 1014.66 422.169C1013.3 421.746 1011.86 421.492 1010.34 421.407C1008.84 421.294 1007.23 421.238 1005.51 421.238H996.869V426.405C996.869 426.969 996.657 427.449 996.234 427.845C995.839 428.24 995.373 428.438 994.836 428.438C994.272 428.438 993.792 428.24 993.396 427.845C993.001 427.449 992.803 426.969 992.803 426.405V415.52C992.803 414.673 992.959 413.911 993.269 413.233C993.58 412.555 993.975 411.976 994.455 411.496C994.935 411.016 995.486 410.649 996.107 410.395C996.728 410.113 997.349 409.972 997.97 409.972H1020.08C1020.87 409.972 1021.62 410.127 1022.32 410.438C1023.03 410.72 1023.65 411.115 1024.19 411.624C1024.72 412.132 1025.15 412.725 1025.46 413.402C1025.77 414.08 1025.92 414.814 1025.92 415.605C1025.92 416.169 1025.73 416.649 1025.33 417.045C1024.94 417.44 1024.46 417.638 1023.89 417.638C1023.33 417.638 1022.85 417.44 1022.45 417.045C1022.06 416.649 1021.86 416.169 1021.86 415.605C1021.86 415.181 1021.7 414.828 1021.39 414.546C1021.11 414.264 1020.77 414.094 1020.38 414.038H998.182C997.815 414.038 997.519 414.136 997.293 414.334C997.067 414.504 996.926 414.715 996.869 414.969V417.172H1005.51C1007.99 417.172 1010.24 417.313 1012.24 417.595C1014.25 417.878 1016.06 418.344 1017.66 418.993C1019.3 419.614 1020.76 420.447 1022.03 421.492C1023.33 422.508 1024.48 423.765 1025.5 425.261C1025.78 425.628 1025.92 426.009 1025.92 426.405Z" fill="#00FFFF"/>
<path d="M852.938 438.392C853.023 438.392 853.096 438.361 853.158 438.299C853.226 438.237 853.26 438.163 853.26 438.079C853.26 437.988 853.226 437.915 853.158 437.858C853.096 437.796 853.023 437.765 852.938 437.765H848.237V438.18C848.237 438.237 848.259 438.287 848.304 438.333C848.355 438.372 848.42 438.392 848.499 438.392H852.938ZM847.424 435.919C847.424 435.806 847.463 435.71 847.542 435.631C847.621 435.551 847.717 435.512 847.83 435.512H852.904C853.062 435.512 853.209 435.543 853.344 435.605C853.486 435.662 853.607 435.741 853.709 435.842C853.816 435.944 853.898 436.065 853.954 436.207C854.016 436.342 854.048 436.489 854.048 436.647C854.048 436.788 854.022 436.921 853.971 437.045C853.926 437.164 853.864 437.271 853.785 437.367C853.864 437.463 853.926 437.573 853.971 437.697C854.022 437.816 854.048 437.943 854.048 438.079C854.048 438.237 854.016 438.383 853.954 438.519C853.898 438.655 853.816 438.773 853.709 438.875C853.607 438.976 853.486 439.058 853.344 439.12C853.209 439.177 853.062 439.205 852.904 439.205H848.457C848.333 439.205 848.208 439.18 848.084 439.129C847.96 439.072 847.85 438.996 847.754 438.9C847.658 438.804 847.579 438.688 847.517 438.553C847.455 438.417 847.424 438.265 847.424 438.095V437.333C847.424 437.181 847.466 437.079 847.551 437.028C847.641 436.977 847.779 436.952 847.966 436.952H852.946C853.031 436.952 853.104 436.924 853.167 436.867C853.229 436.811 853.26 436.737 853.26 436.647C853.26 436.562 853.226 436.489 853.158 436.427C853.096 436.359 853.023 436.325 852.938 436.325H847.83C847.717 436.325 847.621 436.286 847.542 436.207C847.463 436.127 847.424 436.031 847.424 435.919ZM860.052 438.392C860.244 438.392 860.402 438.358 860.526 438.29C860.65 438.217 860.746 438.129 860.814 438.028C860.888 437.926 860.936 437.816 860.958 437.697C860.986 437.573 861 437.46 861 437.359C861 437.257 860.986 437.147 860.958 437.028C860.936 436.904 860.888 436.791 860.814 436.689C860.746 436.588 860.65 436.503 860.526 436.435C860.402 436.362 860.244 436.325 860.052 436.325H856.63C856.432 436.325 856.271 436.362 856.147 436.435C856.028 436.503 855.932 436.588 855.859 436.689C855.791 436.791 855.743 436.904 855.715 437.028C855.692 437.147 855.681 437.257 855.681 437.359C855.681 437.46 855.692 437.573 855.715 437.697C855.743 437.816 855.791 437.926 855.859 438.028C855.932 438.129 856.028 438.217 856.147 438.29C856.271 438.358 856.432 438.392 856.63 438.392H860.052ZM861.788 437.359C861.788 437.573 861.752 437.791 861.678 438.011C861.61 438.225 861.509 438.423 861.373 438.604C861.238 438.779 861.074 438.923 860.882 439.036C860.69 439.149 860.472 439.205 860.23 439.205H856.367C856.136 439.194 855.929 439.132 855.749 439.019C855.568 438.9 855.413 438.753 855.283 438.578C855.159 438.403 855.063 438.208 854.995 437.994C854.927 437.779 854.893 437.567 854.893 437.359C854.893 437.144 854.927 436.929 854.995 436.715C855.068 436.495 855.173 436.297 855.308 436.122C855.444 435.941 855.608 435.794 855.8 435.681C855.992 435.568 856.209 435.512 856.452 435.512H860.314C860.546 435.523 860.752 435.588 860.933 435.707C861.113 435.82 861.266 435.964 861.39 436.139C861.52 436.314 861.619 436.509 861.687 436.723C861.754 436.938 861.788 437.15 861.788 437.359ZM868.082 437.765C868.235 437.861 868.39 437.966 868.548 438.079C868.706 438.186 868.867 438.304 869.031 438.434C869.093 438.479 869.147 438.533 869.192 438.595C869.237 438.652 869.26 438.719 869.26 438.799C869.26 438.911 869.22 439.007 869.141 439.087C869.062 439.166 868.966 439.205 868.853 439.205C868.757 439.205 868.661 439.166 868.565 439.087C868.334 438.917 868.097 438.753 867.854 438.595C867.611 438.437 867.357 438.296 867.091 438.172C866.832 438.047 866.561 437.949 866.278 437.875C865.996 437.802 865.702 437.765 865.397 437.765H863.712C863.638 437.776 863.576 437.81 863.525 437.867C863.474 437.923 863.449 437.994 863.449 438.079V438.799C863.449 438.911 863.407 439.007 863.322 439.087C863.243 439.166 863.15 439.205 863.042 439.205C862.929 439.205 862.833 439.166 862.754 439.087C862.675 439.007 862.636 438.911 862.636 438.799V437.985C862.636 437.844 862.661 437.711 862.712 437.587C862.769 437.457 862.842 437.347 862.932 437.257C863.023 437.161 863.13 437.087 863.254 437.037C863.378 436.98 863.514 436.952 863.661 436.952H868.15C868.235 436.952 868.308 436.924 868.37 436.867C868.438 436.805 868.472 436.729 868.472 436.639C868.472 436.554 868.438 436.48 868.37 436.418C868.308 436.356 868.235 436.325 868.15 436.325H863.042C862.929 436.325 862.833 436.286 862.754 436.207C862.675 436.127 862.636 436.031 862.636 435.919C862.636 435.806 862.675 435.71 862.754 435.631C862.833 435.551 862.929 435.512 863.042 435.512H868.116C868.274 435.512 868.421 435.543 868.557 435.605C868.698 435.662 868.819 435.741 868.921 435.842C869.028 435.944 869.11 436.063 869.167 436.198C869.229 436.334 869.26 436.48 869.26 436.639C869.26 436.797 869.229 436.943 869.167 437.079C869.11 437.215 869.028 437.333 868.921 437.435C868.819 437.536 868.698 437.618 868.557 437.68C868.421 437.737 868.274 437.765 868.116 437.765H868.082ZM875.874 435.919C875.874 435.806 875.914 435.71 875.993 435.631C876.072 435.551 876.168 435.512 876.281 435.512C876.394 435.512 876.49 435.551 876.569 435.631C876.648 435.71 876.687 435.806 876.687 435.919V438.383C876.687 438.615 876.608 438.81 876.45 438.968C876.298 439.126 876.106 439.205 875.874 439.205C875.795 439.205 875.716 439.194 875.637 439.171C875.563 439.149 875.496 439.118 875.434 439.078L871.554 436.706C871.447 436.644 871.356 436.596 871.283 436.562C871.215 436.523 871.159 436.503 871.114 436.503C871.029 436.503 870.975 436.557 870.953 436.664C870.93 436.771 870.919 436.927 870.919 437.13V438.799C870.919 438.911 870.879 439.007 870.8 439.087C870.721 439.166 870.625 439.205 870.512 439.205C870.399 439.205 870.303 439.166 870.224 439.087C870.145 439.007 870.106 438.911 870.106 438.799V436.334C870.106 436.102 870.182 435.907 870.334 435.749C870.492 435.591 870.687 435.512 870.919 435.512C870.998 435.512 871.074 435.523 871.147 435.546C871.226 435.568 871.297 435.599 871.359 435.639L875.239 438.011C875.346 438.073 875.434 438.124 875.501 438.163C875.575 438.197 875.634 438.214 875.679 438.214C875.764 438.214 875.818 438.16 875.84 438.053C875.863 437.946 875.874 437.791 875.874 437.587V435.919ZM882.16 438.799C882.16 438.911 882.121 439.007 882.042 439.087C881.963 439.166 881.867 439.205 881.754 439.205C881.641 439.205 881.545 439.166 881.466 439.087C881.387 439.007 881.347 438.911 881.347 438.799V435.919C881.347 435.806 881.387 435.71 881.466 435.631C881.545 435.551 881.641 435.512 881.754 435.512C881.867 435.512 881.963 435.551 882.042 435.631C882.121 435.71 882.16 435.806 882.16 435.919V438.799ZM890.159 438.799C890.159 438.911 890.12 439.007 890.041 439.087C889.961 439.166 889.865 439.205 889.753 439.205C889.64 439.205 889.544 439.166 889.465 439.087C889.385 439.007 889.346 438.911 889.346 438.799V436.952C889.346 436.72 889.332 436.605 889.304 436.605C889.281 436.605 889.202 436.681 889.066 436.833L887.203 438.951C887.129 439.036 887.039 439.101 886.932 439.146C886.825 439.185 886.709 439.205 886.585 439.205C886.46 439.205 886.345 439.185 886.237 439.146C886.13 439.101 886.04 439.036 885.966 438.951L884.103 436.833C883.973 436.681 883.894 436.605 883.865 436.605C883.837 436.605 883.823 436.72 883.823 436.952V438.799C883.823 438.911 883.784 439.007 883.705 439.087C883.625 439.166 883.529 439.205 883.417 439.205C883.304 439.205 883.208 439.166 883.129 439.087C883.049 439.007 883.01 438.911 883.01 438.799V436.325C883.01 436.099 883.075 435.907 883.205 435.749C883.335 435.591 883.513 435.512 883.738 435.512C883.874 435.512 883.995 435.546 884.103 435.614C884.21 435.681 884.309 435.763 884.399 435.859L886.347 438.079C886.376 438.107 886.409 438.138 886.449 438.172C886.494 438.2 886.539 438.214 886.585 438.214C886.63 438.214 886.672 438.2 886.712 438.172C886.757 438.138 886.793 438.107 886.822 438.079L888.761 435.859H888.77C888.849 435.752 888.945 435.667 889.058 435.605C889.171 435.543 889.295 435.512 889.431 435.512C889.657 435.512 889.834 435.591 889.964 435.749C890.094 435.907 890.159 436.099 890.159 436.325V438.799ZM898.158 438.799C898.158 438.911 898.119 439.007 898.04 439.087C897.961 439.166 897.865 439.205 897.752 439.205C897.639 439.205 897.543 439.166 897.464 439.087C897.385 439.007 897.345 438.911 897.345 438.799V436.952C897.345 436.72 897.331 436.605 897.303 436.605C897.28 436.605 897.201 436.681 897.065 436.833L895.202 438.951C895.129 439.036 895.038 439.101 894.931 439.146C894.824 439.185 894.708 439.205 894.584 439.205C894.459 439.205 894.344 439.185 894.236 439.146C894.129 439.101 894.039 439.036 893.965 438.951L892.102 436.833C891.972 436.681 891.893 436.605 891.865 436.605C891.836 436.605 891.822 436.72 891.822 436.952V438.799C891.822 438.911 891.783 439.007 891.704 439.087C891.625 439.166 891.529 439.205 891.416 439.205C891.303 439.205 891.207 439.166 891.128 439.087C891.049 439.007 891.009 438.911 891.009 438.799V436.325C891.009 436.099 891.074 435.907 891.204 435.749C891.334 435.591 891.512 435.512 891.737 435.512C891.873 435.512 891.994 435.546 892.102 435.614C892.209 435.681 892.308 435.763 892.398 435.859L894.346 438.079C894.375 438.107 894.409 438.138 894.448 438.172C894.493 438.2 894.538 438.214 894.584 438.214C894.629 438.214 894.671 438.2 894.711 438.172C894.756 438.138 894.793 438.107 894.821 438.079L896.761 435.859H896.769C896.848 435.752 896.944 435.667 897.057 435.605C897.17 435.543 897.294 435.512 897.43 435.512C897.656 435.512 897.833 435.591 897.963 435.749C898.093 435.907 898.158 436.099 898.158 436.325V438.799ZM899.008 435.919C899.008 435.806 899.048 435.71 899.127 435.631C899.206 435.551 899.302 435.512 899.415 435.512H905.42C905.533 435.512 905.629 435.551 905.708 435.631C905.787 435.71 905.827 435.806 905.827 435.919C905.827 436.031 905.787 436.127 905.708 436.207C905.629 436.286 905.533 436.325 905.42 436.325H899.415C899.302 436.325 899.206 436.286 899.127 436.207C899.048 436.127 899.008 436.031 899.008 435.919ZM900.042 439.205C899.917 439.205 899.793 439.18 899.669 439.129C899.545 439.072 899.434 438.996 899.338 438.9C899.242 438.804 899.163 438.688 899.101 438.553C899.039 438.417 899.008 438.265 899.008 438.095V437.333C899.008 437.181 899.05 437.079 899.135 437.028C899.226 436.977 899.364 436.952 899.55 436.952H905.234C905.347 436.952 905.443 436.991 905.522 437.071C905.601 437.15 905.641 437.246 905.641 437.359C905.641 437.471 905.601 437.567 905.522 437.647C905.443 437.726 905.347 437.765 905.234 437.765H899.821V438.18C899.821 438.237 899.844 438.287 899.889 438.333C899.94 438.372 900.005 438.392 900.084 438.392H905.42C905.533 438.392 905.629 438.431 905.708 438.511C905.787 438.59 905.827 438.686 905.827 438.799C905.827 438.911 905.787 439.007 905.708 439.087C905.629 439.166 905.533 439.205 905.42 439.205H900.042ZM912.123 437.765C912.275 437.861 912.431 437.966 912.589 438.079C912.747 438.186 912.908 438.304 913.072 438.434C913.134 438.479 913.187 438.533 913.233 438.595C913.278 438.652 913.3 438.719 913.3 438.799C913.3 438.911 913.261 439.007 913.182 439.087C913.103 439.166 913.007 439.205 912.894 439.205C912.798 439.205 912.702 439.166 912.606 439.087C912.374 438.917 912.137 438.753 911.894 438.595C911.651 438.437 911.397 438.296 911.132 438.172C910.872 438.047 910.601 437.949 910.319 437.875C910.036 437.802 909.743 437.765 909.438 437.765H907.752C907.679 437.776 907.617 437.81 907.566 437.867C907.515 437.923 907.489 437.994 907.489 438.079V438.799C907.489 438.911 907.447 439.007 907.362 439.087C907.283 439.166 907.19 439.205 907.083 439.205C906.97 439.205 906.874 439.166 906.795 439.087C906.716 439.007 906.676 438.911 906.676 438.799V437.985C906.676 437.844 906.702 437.711 906.753 437.587C906.809 437.457 906.882 437.347 906.973 437.257C907.063 437.161 907.17 437.087 907.295 437.037C907.419 436.98 907.554 436.952 907.701 436.952H912.191C912.275 436.952 912.349 436.924 912.411 436.867C912.479 436.805 912.513 436.729 912.513 436.639C912.513 436.554 912.479 436.48 912.411 436.418C912.349 436.356 912.275 436.325 912.191 436.325H907.083C906.97 436.325 906.874 436.286 906.795 436.207C906.716 436.127 906.676 436.031 906.676 435.919C906.676 435.806 906.716 435.71 906.795 435.631C906.874 435.551 906.97 435.512 907.083 435.512H912.157C912.315 435.512 912.462 435.543 912.597 435.605C912.738 435.662 912.86 435.741 912.961 435.842C913.069 435.944 913.151 436.063 913.207 436.198C913.269 436.334 913.3 436.48 913.3 436.639C913.3 436.797 913.269 436.943 913.207 437.079C913.151 437.215 913.069 437.333 912.961 437.435C912.86 437.536 912.738 437.618 912.597 437.68C912.462 437.737 912.315 437.765 912.157 437.765H912.123ZM915.273 437.765C915.114 437.765 914.968 437.737 914.832 437.68C914.697 437.618 914.578 437.536 914.476 437.435C914.375 437.333 914.293 437.215 914.231 437.079C914.174 436.943 914.146 436.797 914.146 436.639C914.146 436.48 914.174 436.334 914.231 436.198C914.293 436.063 914.375 435.944 914.476 435.842C914.578 435.741 914.697 435.662 914.832 435.605C914.968 435.543 915.114 435.512 915.273 435.512H920.414C920.527 435.512 920.623 435.551 920.702 435.631C920.781 435.71 920.821 435.806 920.821 435.919C920.821 436.031 920.781 436.127 920.702 436.207C920.623 436.286 920.527 436.325 920.414 436.325H915.256C915.171 436.325 915.095 436.356 915.027 436.418C914.965 436.475 914.934 436.548 914.934 436.639C914.934 436.723 914.965 436.797 915.027 436.859C915.095 436.921 915.171 436.952 915.256 436.952H919.94C920.098 436.952 920.245 436.983 920.38 437.045C920.521 437.102 920.643 437.181 920.745 437.282C920.846 437.384 920.925 437.505 920.982 437.647C921.044 437.782 921.075 437.929 921.075 438.087C921.075 438.245 921.044 438.392 920.982 438.527C920.925 438.663 920.846 438.782 920.745 438.883C920.643 438.985 920.521 439.064 920.38 439.12C920.245 439.177 920.098 439.205 919.94 439.205H914.807C914.694 439.205 914.598 439.166 914.519 439.087C914.44 439.007 914.4 438.911 914.4 438.799C914.4 438.686 914.44 438.59 914.519 438.511C914.598 438.431 914.694 438.392 914.807 438.392H919.974C920.058 438.392 920.132 438.364 920.194 438.307C920.256 438.245 920.287 438.172 920.287 438.087C920.287 437.997 920.256 437.92 920.194 437.858C920.132 437.796 920.058 437.765 919.974 437.765H915.273ZM922.735 438.799C922.735 438.911 922.695 439.007 922.616 439.087C922.537 439.166 922.441 439.205 922.328 439.205C922.215 439.205 922.119 439.166 922.04 439.087C921.961 439.007 921.922 438.911 921.922 438.799V435.919C921.922 435.806 921.961 435.71 922.04 435.631C922.119 435.551 922.215 435.512 922.328 435.512C922.441 435.512 922.537 435.551 922.616 435.631C922.695 435.71 922.735 435.806 922.735 435.919V438.799ZM928.929 435.664C929.014 435.563 929.118 435.512 929.243 435.512C929.356 435.512 929.452 435.551 929.531 435.631C929.61 435.71 929.649 435.806 929.649 435.919C929.649 436.02 929.621 436.102 929.565 436.164L929.556 436.173L927.506 438.934C927.405 439.064 927.275 439.171 927.117 439.256C926.964 439.335 926.798 439.375 926.617 439.375C926.447 439.375 926.286 439.338 926.134 439.264C925.987 439.191 925.863 439.089 925.761 438.959L923.703 436.207C923.669 436.167 923.641 436.125 923.618 436.079C923.596 436.029 923.584 435.975 923.584 435.919C923.584 435.806 923.624 435.71 923.703 435.631C923.782 435.551 923.878 435.512 923.991 435.512C924.126 435.512 924.234 435.566 924.313 435.673L926.286 438.307C926.326 438.352 926.374 438.403 926.43 438.46C926.493 438.511 926.555 438.536 926.617 438.536C926.679 438.536 926.738 438.511 926.795 438.46C926.857 438.403 926.905 438.352 926.939 438.307L928.929 435.664ZM930.5 435.919C930.5 435.806 930.539 435.71 930.618 435.631C930.697 435.551 930.793 435.512 930.906 435.512H936.912C937.025 435.512 937.121 435.551 937.2 435.631C937.279 435.71 937.319 435.806 937.319 435.919C937.319 436.031 937.279 436.127 937.2 436.207C937.121 436.286 937.025 436.325 936.912 436.325H930.906C930.793 436.325 930.697 436.286 930.618 436.207C930.539 436.127 930.5 436.031 930.5 435.919ZM931.533 439.205C931.409 439.205 931.285 439.18 931.161 439.129C931.036 439.072 930.926 438.996 930.83 438.9C930.734 438.804 930.655 438.688 930.593 438.553C930.531 438.417 930.5 438.265 930.5 438.095V437.333C930.5 437.181 930.542 437.079 930.627 437.028C930.717 436.977 930.856 436.952 931.042 436.952H936.726C936.839 436.952 936.935 436.991 937.014 437.071C937.093 437.15 937.132 437.246 937.132 437.359C937.132 437.471 937.093 437.567 937.014 437.647C936.935 437.726 936.839 437.765 936.726 437.765H931.313V438.18C931.313 438.237 931.336 438.287 931.381 438.333C931.432 438.372 931.497 438.392 931.576 438.392H936.912C937.025 438.392 937.121 438.431 937.2 438.511C937.279 438.59 937.319 438.686 937.319 438.799C937.319 438.911 937.279 439.007 937.2 439.087C937.121 439.166 937.025 439.205 936.912 439.205H931.533Z" fill="white"/>
<path d="M910.524 158.143C910.524 168.937 902.146 177.632 891.877 177.632C881.608 177.632 873.229 168.937 873.229 158.143C873.229 147.35 881.608 138.655 891.877 138.655C902.146 138.655 910.524 147.35 910.524 158.143Z" stroke="#272727" stroke-width="1.49912"/>
<g filter="url(#filter1_f_1_37)">
<path d="M680.197 277.257C680.197 281.219 677.122 284.411 673.352 284.411C669.582 284.411 666.507 281.219 666.507 277.257C666.507 273.295 669.582 270.103 673.352 270.103C677.122 270.103 680.197 273.295 680.197 277.257Z" stroke="white" stroke-width="0.550309"/>
</g>
<g filter="url(#filter2_f_1_37)">
<path d="M343.034 727.967C343.034 731.93 339.958 735.121 336.188 735.121C332.419 735.121 329.343 731.93 329.343 727.967C329.343 724.005 332.419 720.813 336.188 720.813C339.958 720.813 343.034 724.005 343.034 727.967Z" stroke="white" stroke-width="0.550309"/>
</g>
<rect x="1105.5" y="189.625" width="53.9916" height="241.858" rx="26.9958" stroke="url(#paint1_linear_1_37)" stroke-width="1.49912"/>
<path d="M76.7496 563.446C76.7496 547.452 89.7154 534.486 105.71 534.486C121.704 534.486 134.67 547.452 134.67 563.446V714.403C134.67 730.397 121.704 743.363 105.71 743.363C89.7154 743.363 76.7496 730.397 76.7496 714.403V563.446Z" stroke="url(#paint2_linear_1_37)" stroke-width="1.49912"/>
<rect x="1765.62" y="683.928" width="76.5807" height="204.38" rx="38.2903" stroke="url(#paint3_linear_1_37)" stroke-width="1.49912"/>
<rect x="1765.62" y="683.928" width="76.5807" height="204.38" rx="38.2903" stroke="url(#paint4_linear_1_37)" stroke-width="1.49912"/>
<rect x="1765.62" y="683.928" width="76.5807" height="204.38" rx="38.2903" stroke="url(#paint5_linear_1_37)" stroke-width="1.49912"/>
<rect x="1765.62" y="683.928" width="76.5807" height="204.38" rx="38.2903" stroke="url(#paint6_linear_1_37)" stroke-width="1.49912"/>
<rect x="203.939" y="76.8218" width="50.9502" height="122.591" rx="25.4751" stroke="url(#paint7_linear_1_37)" stroke-width="1.49912"/>
<rect x="203.939" y="76.8218" width="50.9502" height="122.591" rx="25.4751" stroke="url(#paint8_linear_1_37)" stroke-width="1.49912"/>
<rect x="203.939" y="76.8218" width="50.9502" height="122.591" rx="25.4751" stroke="url(#paint9_linear_1_37)" stroke-width="1.49912"/>
<rect x="203.939" y="76.8218" width="50.9502" height="122.591" rx="25.4751" stroke="url(#paint10_linear_1_37)" stroke-width="1.49912"/>
<rect x="1179.66" y="17.2262" width="58.9022" height="113.933" rx="29.4511" stroke="url(#paint11_linear_1_37)" stroke-width="1.49912"/>
<g filter="url(#filter3_f_1_37)">
<path d="M1202.48 324.296L1205.01 332.237H1213.22L1206.58 337.146L1209.12 345.087L1202.48 340.179L1195.84 345.087L1198.37 337.146L1191.74 332.237H1199.94L1202.48 324.296Z" fill="#00547A"/>
</g>
<g filter="url(#filter4_f_1_37)">
<path d="M1832.55 436.333L1835.08 444.274H1843.29L1836.65 449.183L1839.18 457.124L1832.55 452.216L1825.91 457.124L1828.44 449.183L1821.8 444.274H1830.01L1832.55 436.333Z" fill="#00547A"/>
</g>
<g filter="url(#filter5_bf_1_37)">
<path d="M314.061 524.789C314.292 523.745 315.78 523.745 316.012 524.789L316.7 527.887C316.85 528.566 317.631 528.887 318.216 528.511L320.863 526.811C321.759 526.235 322.814 527.273 322.252 528.178L320.539 530.939C320.178 531.521 320.496 532.286 321.164 532.44L324.303 533.161C325.337 533.399 325.337 534.872 324.303 535.109L321.164 535.831C320.496 535.985 320.178 536.75 320.539 537.332L322.252 540.093C322.814 540.998 321.759 542.036 320.863 541.46L318.216 539.759C317.631 539.384 316.85 539.705 316.7 540.384L316.012 543.482C315.78 544.526 314.292 544.526 314.061 543.482L313.373 540.384C313.222 539.705 312.442 539.384 311.857 539.759L309.21 541.46C308.314 542.036 307.259 540.998 307.82 540.093L309.534 537.332C309.895 536.75 309.576 535.985 308.908 535.831L305.769 535.109C304.735 534.872 304.735 533.399 305.769 533.161L308.908 532.44C309.576 532.286 309.895 531.521 309.534 530.939L307.82 528.178C307.259 527.273 308.314 526.235 309.21 526.811L311.857 528.511C312.442 528.887 313.222 528.566 313.373 527.887L314.061 524.789Z" fill="#1AA0CA"/>
</g>
<g filter="url(#filter6_bf_1_37)">
<path d="M1790.77 274.424C1790.98 273.354 1792.51 273.354 1792.73 274.424L1793.27 277.102C1793.41 277.812 1794.23 278.139 1794.82 277.72L1796.93 276.227C1797.8 275.609 1798.9 276.601 1798.38 277.531L1796.78 280.371C1796.46 280.944 1796.77 281.667 1797.41 281.829L1800.39 282.587C1801.4 282.842 1801.4 284.269 1800.39 284.524L1797.41 285.283C1796.77 285.444 1796.46 286.167 1796.78 286.74L1798.38 289.58C1798.9 290.51 1797.8 291.502 1796.93 290.884L1794.82 289.391C1794.23 288.972 1793.41 289.3 1793.27 290.009L1792.73 292.687C1792.51 293.757 1790.98 293.757 1790.77 292.687L1790.23 290.009C1790.09 289.3 1789.26 288.972 1788.67 289.391L1786.57 290.884C1785.7 291.502 1784.6 290.51 1785.12 289.58L1786.71 286.74C1787.04 286.167 1786.73 285.444 1786.09 285.283L1783.1 284.524C1782.1 284.269 1782.1 282.842 1783.1 282.587L1786.09 281.829C1786.73 281.667 1787.04 280.944 1786.71 280.371L1785.12 277.531C1784.6 276.601 1785.7 275.609 1786.57 276.227L1788.67 277.72C1789.26 278.139 1790.09 277.812 1790.23 277.102L1790.77 274.424Z" fill="#1AA0CA"/>
</g>
<g filter="url(#filter7_bf_1_37)">
<path d="M1110.24 275.759C1110.45 274.688 1111.98 274.688 1112.2 275.759L1112.74 278.436C1112.88 279.146 1113.7 279.473 1114.29 279.054L1116.4 277.561C1117.27 276.944 1118.37 277.935 1117.85 278.865L1116.25 281.705C1115.93 282.279 1116.24 283.001 1116.88 283.163L1119.86 283.921C1120.87 284.177 1120.87 285.603 1119.86 285.859L1116.88 286.617C1116.24 286.779 1115.93 287.501 1116.25 288.075L1117.85 290.915C1118.37 291.845 1117.27 292.836 1116.4 292.219L1114.29 290.726C1113.7 290.307 1112.88 290.634 1112.74 291.344L1112.2 294.021C1111.98 295.092 1110.45 295.092 1110.24 294.021L1109.7 291.344C1109.56 290.634 1108.73 290.307 1108.14 290.726L1106.04 292.219C1105.17 292.836 1104.07 291.845 1104.59 290.915L1106.18 288.075C1106.51 287.501 1106.2 286.779 1105.56 286.617L1102.57 285.859C1101.57 285.603 1101.57 284.177 1102.57 283.921L1105.56 283.163C1106.2 283.001 1106.51 282.279 1106.18 281.705L1104.59 278.865C1104.07 277.935 1105.17 276.944 1106.04 277.561L1108.14 279.054C1108.73 279.473 1109.56 279.146 1109.7 278.436L1110.24 275.759Z" fill="#1AA0CA"/>
</g>
<path d="M646.044 212.543C646.044 230.788 631.875 245.524 614.465 245.524C597.054 245.524 582.885 230.788 582.885 212.543C582.885 194.298 597.054 179.563 614.465 179.563C631.875 179.563 646.044 194.298 646.044 212.543Z" stroke="url(#paint12_linear_1_37)" stroke-width="1.49912"/>
<path d="M1919.25 660.868C1919.25 679.113 1905.08 693.848 1887.67 693.848C1870.26 693.848 1856.09 679.113 1856.09 660.868C1856.09 642.623 1870.26 627.887 1887.67 627.887C1905.08 627.887 1919.25 642.623 1919.25 660.868Z" stroke="url(#paint13_linear_1_37)" stroke-width="1.49912"/>
<path d="M170.066 694.225C170.066 712.47 155.898 727.206 138.487 727.206C121.076 727.206 106.908 712.47 106.908 694.225C106.908 675.98 121.076 661.244 138.487 661.244C155.898 661.244 170.066 675.98 170.066 694.225Z" stroke="url(#paint14_linear_1_37)" stroke-width="1.49912"/>
<g filter="url(#filter8_f_1_37)">
<path d="M1728.55 74.738L1731.58 84.2335H1741.39L1733.45 90.102L1736.48 99.5974L1728.55 93.7289L1720.61 99.5974L1723.64 90.102L1715.7 84.2335H1725.51L1728.55 74.738Z" fill="#1AA0CA"/>
</g>
<g filter="url(#filter9_f_1_37)">
<path d="M92.1267 257.537L95.1586 267.032H104.97L97.0324 272.901L100.064 282.396L92.1267 276.528L84.189 282.396L87.2209 272.901L79.2833 267.032H89.0948L92.1267 257.537Z" fill="#1AA0CA"/>
</g>
<g filter="url(#filter10_f_1_37)">
<path d="M472.384 -24L475.416 -14.5046H485.228L477.29 -8.63607L480.322 0.859364L472.384 -5.00914L464.447 0.859364L467.479 -8.63607L459.541 -14.5046H469.352L472.384 -24Z" fill="#1AA0CA"/>
</g>
<g filter="url(#filter11_f_1_37)">
<ellipse cx="989.5" cy="1534" rx="1129.5" ry="864.702" fill="#00B2FF" fill-opacity="0.38"/>
</g>
</g>
<defs>
<filter id="filter0_d_1_37" x="938.765" y="363.647" width="107.294" height="107.294" filterUnits="userSpaceOnUse" color-interpolation-filters="sRGB">
<feFlood flood-opacity="0" result="BackgroundImageFix"/>
<feColorMatrix in="SourceAlpha" type="matrix" values="0 0 0 0 0 0 0 0 0 0 0 0 0 0 0 0 0 0 127 0" result="hardAlpha"/>
<feMorphology radius="1.41176" operator="dilate" in="SourceAlpha" result="effect1_dropShadow_1_37"/>
<feOffset/>
<feGaussianBlur stdDeviation="8.47059"/>
<feComposite in2="hardAlpha" operator="out"/>
<feColorMatrix type="matrix" values="0 0 0 0 0 0 0 0 0 0.7 0 0 0 0 1 0 0 0 0.44 0"/>
<feBlend mode="normal" in2="BackgroundImageFix" result="effect1_dropShadow_1_37"/>
<feBlend mode="normal" in="SourceGraphic" in2="effect1_dropShadow_1_37" result="shape"/>
</filter>
<filter id="filter1_f_1_37" x="664.495" y="268.091" width="17.7143" height="18.3318" filterUnits="userSpaceOnUse" color-interpolation-filters="sRGB">
<feFlood flood-opacity="0" result="BackgroundImageFix"/>
<feBlend mode="normal" in="SourceGraphic" in2="BackgroundImageFix" result="shape"/>
<feGaussianBlur stdDeviation="0.868344" result="effect1_foregroundBlur_1_37"/>
</filter>
<filter id="filter2_f_1_37" x="327.331" y="718.802" width="17.7143" height="18.3317" filterUnits="userSpaceOnUse" color-interpolation-filters="sRGB">
<feFlood flood-opacity="0" result="BackgroundImageFix"/>
<feBlend mode="normal" in="SourceGraphic" in2="BackgroundImageFix" result="shape"/>
<feGaussianBlur stdDeviation="0.868344" result="effect1_foregroundBlur_1_37"/>
</filter>
<filter id="filter3_f_1_37" x="1185.24" y="317.8" width="34.4759" height="33.7839" filterUnits="userSpaceOnUse" color-interpolation-filters="sRGB">
<feFlood flood-opacity="0" result="BackgroundImageFix"/>
<feBlend mode="normal" in="SourceGraphic" in2="BackgroundImageFix" result="shape"/>
<feGaussianBlur stdDeviation="3.24809" result="effect1_foregroundBlur_1_37"/>
</filter>
<filter id="filter4_f_1_37" x="1815.31" y="429.837" width="34.4759" height="33.7839" filterUnits="userSpaceOnUse" color-interpolation-filters="sRGB">
<feFlood flood-opacity="0" result="BackgroundImageFix"/>
<feBlend mode="normal" in="SourceGraphic" in2="BackgroundImageFix" result="shape"/>
<feGaussianBlur stdDeviation="3.24809" result="effect1_foregroundBlur_1_37"/>
</filter>
<filter id="filter5_bf_1_37" x="243.03" y="462.042" width="144.012" height="144.186" filterUnits="userSpaceOnUse" color-interpolation-filters="sRGB">
<feFlood flood-opacity="0" result="BackgroundImageFix"/>
<feGaussianBlur in="BackgroundImageFix" stdDeviation="30.9818"/>
<feComposite in2="SourceAlpha" operator="in" result="effect1_backgroundBlur_1_37"/>
<feBlend mode="normal" in="SourceGraphic" in2="effect1_backgroundBlur_1_37" result="shape"/>
<feGaussianBlur stdDeviation="3.24809" result="effect2_foregroundBlur_1_37"/>
</filter>
<filter id="filter6_bf_1_37" x="1720.39" y="211.658" width="142.722" height="143.795" filterUnits="userSpaceOnUse" color-interpolation-filters="sRGB">
<feFlood flood-opacity="0" result="BackgroundImageFix"/>
<feGaussianBlur in="BackgroundImageFix" stdDeviation="30.9818"/>
<feComposite in2="SourceAlpha" operator="in" result="effect1_backgroundBlur_1_37"/>
<feBlend mode="normal" in="SourceGraphic" in2="effect1_backgroundBlur_1_37" result="shape"/>
<feGaussianBlur stdDeviation="3.24809" result="effect2_foregroundBlur_1_37"/>
</filter>
<filter id="filter7_bf_1_37" x="1039.86" y="212.992" width="142.722" height="143.795" filterUnits="userSpaceOnUse" color-interpolation-filters="sRGB">
<feFlood flood-opacity="0" result="BackgroundImageFix"/>
<feGaussianBlur in="BackgroundImageFix" stdDeviation="30.9818"/>
<feComposite in2="SourceAlpha" operator="in" result="effect1_backgroundBlur_1_37"/>
<feBlend mode="normal" in="SourceGraphic" in2="effect1_backgroundBlur_1_37" result="shape"/>
<feGaussianBlur stdDeviation="3.24809" result="effect2_foregroundBlur_1_37"/>
</filter>
<filter id="filter8_f_1_37" x="1699.71" y="58.7474" width="57.668" height="56.8406" filterUnits="userSpaceOnUse" color-interpolation-filters="sRGB">
<feFlood flood-opacity="0" result="BackgroundImageFix"/>
<feBlend mode="normal" in="SourceGraphic" in2="BackgroundImageFix" result="shape"/>
<feGaussianBlur stdDeviation="7.9953" result="effect1_foregroundBlur_1_37"/>
</filter>
<filter id="filter9_f_1_37" x="63.2927" y="241.546" width="57.668" height="56.8406" filterUnits="userSpaceOnUse" color-interpolation-filters="sRGB">
<feFlood flood-opacity="0" result="BackgroundImageFix"/>
<feBlend mode="normal" in="SourceGraphic" in2="BackgroundImageFix" result="shape"/>
<feGaussianBlur stdDeviation="7.9953" result="effect1_foregroundBlur_1_37"/>
</filter>
<filter id="filter10_f_1_37" x="443.55" y="-39.9906" width="57.668" height="56.8406" filterUnits="userSpaceOnUse" color-interpolation-filters="sRGB">
<feFlood flood-opacity="0" result="BackgroundImageFix"/>
<feBlend mode="normal" in="SourceGraphic" in2="BackgroundImageFix" result="shape"/>
<feGaussianBlur stdDeviation="7.9953" result="effect1_foregroundBlur_1_37"/>
</filter>
<filter id="filter11_f_1_37" x="-768.157" y="41.1413" width="3515.31" height="2985.72" filterUnits="userSpaceOnUse" color-interpolation-filters="sRGB">
<feFlood flood-opacity="0" result="BackgroundImageFix"/>
<feBlend mode="normal" in="SourceGraphic" in2="BackgroundImageFix" result="shape"/>
<feGaussianBlur stdDeviation="314.079" result="effect1_foregroundBlur_1_37"/>
</filter>
<linearGradient id="paint0_linear_1_37" x1="992.412" y1="382" x2="992.412" y2="452.588" gradientUnits="userSpaceOnUse">
<stop stop-color="#003E59"/>
<stop offset="0.755208"/>
</linearGradient>
<linearGradient id="paint1_linear_1_37" x1="1132.66" y1="188.875" x2="1157.54" y2="431.87" gradientUnits="userSpaceOnUse">
<stop stop-color="#1F1F1F" stop-opacity="0.6"/>
<stop offset="1" stop-color="#00A3FF" stop-opacity="0.33"/>
</linearGradient>
<linearGradient id="paint2_linear_1_37" x1="74.9481" y1="398.066" x2="92.3719" y2="608.891" gradientUnits="userSpaceOnUse">
<stop stop-opacity="0.6"/>
<stop offset="1" stop-color="#00B2FF" stop-opacity="0.28"/>
</linearGradient>
<linearGradient id="paint3_linear_1_37" x1="1804.14" y1="683.178" x2="1816.88" y2="890.121" gradientUnits="userSpaceOnUse">
<stop stop-color="white" stop-opacity="0.6"/>
<stop offset="1" stop-color="#00A3FF" stop-opacity="0.33"/>
</linearGradient>
<linearGradient id="paint4_linear_1_37" x1="1804.14" y1="683.178" x2="1816.88" y2="890.121" gradientUnits="userSpaceOnUse">
<stop stop-color="white" stop-opacity="0.6"/>
<stop offset="1" stop-color="#00A3FF" stop-opacity="0.33"/>
</linearGradient>
<linearGradient id="paint5_linear_1_37" x1="1804.14" y1="683.178" x2="1816.88" y2="890.121" gradientUnits="userSpaceOnUse">
<stop stop-color="white" stop-opacity="0.6"/>
<stop offset="1" stop-color="#00A3FF" stop-opacity="0.33"/>
</linearGradient>
<linearGradient id="paint6_linear_1_37" x1="1804.14" y1="683.178" x2="1816.88" y2="890.121" gradientUnits="userSpaceOnUse">
<stop stop-color="white" stop-opacity="0.6"/>
<stop offset="1" stop-color="#00A3FF" stop-opacity="0.33"/>
</linearGradient>
<linearGradient id="paint7_linear_1_37" x1="229.569" y1="76.0723" x2="236.463" y2="200.895" gradientUnits="userSpaceOnUse">
<stop stop-color="white" stop-opacity="0.6"/>
<stop offset="1" stop-color="#00A3FF" stop-opacity="0.33"/>
</linearGradient>
<linearGradient id="paint8_linear_1_37" x1="229.569" y1="76.0723" x2="236.463" y2="200.895" gradientUnits="userSpaceOnUse">
<stop stop-color="white" stop-opacity="0.6"/>
<stop offset="1" stop-color="#00A3FF" stop-opacity="0.33"/>
</linearGradient>
<linearGradient id="paint9_linear_1_37" x1="229.569" y1="76.0723" x2="236.463" y2="200.895" gradientUnits="userSpaceOnUse">
<stop stop-color="white" stop-opacity="0.6"/>
<stop offset="1" stop-color="#00A3FF" stop-opacity="0.33"/>
</linearGradient>
<linearGradient id="paint10_linear_1_37" x1="229.569" y1="76.0723" x2="236.463" y2="200.895" gradientUnits="userSpaceOnUse">
<stop stop-color="#808080" stop-opacity="0.6"/>
<stop offset="1" stop-color="#00A3FF" stop-opacity="0.33"/>
</linearGradient>
<linearGradient id="paint11_linear_1_37" x1="1209.29" y1="16.4767" x2="1214.47" y2="132.714" gradientUnits="userSpaceOnUse">
<stop stop-color="#1F1F1F" stop-opacity="0.6"/>
<stop offset="1" stop-color="#00A3FF" stop-opacity="0.33"/>
</linearGradient>
<linearGradient id="paint12_linear_1_37" x1="614.465" y1="178.813" x2="614.465" y2="246.274" gradientUnits="userSpaceOnUse">
<stop stop-color="#02354E"/>
<stop offset="1" stop-color="#00B2FF"/>
</linearGradient>
<linearGradient id="paint13_linear_1_37" x1="1887.67" y1="627.137" x2="1887.67" y2="694.598" gradientUnits="userSpaceOnUse">
<stop stop-color="#02354E"/>
<stop offset="1" stop-color="#00B2FF"/>
</linearGradient>
<linearGradient id="paint14_linear_1_37" x1="138.487" y1="660.495" x2="138.487" y2="727.955" gradientUnits="userSpaceOnUse">
<stop stop-color="#02354E"/>
<stop offset="1" stop-color="#00B2FF"/>
</linearGradient>
<clipPath id="clip0_1_37">
<rect width="1920" height="1080" fill="white"/>
</clipPath>
</defs>
</svg>
