<svg width="1920" height="3352" viewBox="0 0 1920 3352" fill="none" xmlns="http://www.w3.org/2000/svg">
<g filter="url(#filter0_f_434_827)">
<ellipse rx="342.833" ry="396.082" transform="matrix(-1 0 0 1 1561.83 598.082)" fill="#005881"/>
</g>
<g filter="url(#filter1_f_434_827)">
<ellipse rx="261" ry="301" transform="matrix(-1 0 0 1 1777 1892)" fill="#005881"/>
</g>
<path d="M554.5 546.647C554.5 565.496 569.9 580.795 588.921 580.795C607.941 580.795 623.341 565.496 623.341 546.647C623.341 527.799 607.941 512.5 588.921 512.5C569.9 512.5 554.5 527.799 554.5 546.647Z" stroke="#272727" stroke-width="3"/>
<g filter="url(#filter2_f_434_827)">
<path d="M1174.31 1517.67C1174.31 1524.59 1179.96 1530.2 1186.95 1530.2C1193.93 1530.2 1199.58 1524.59 1199.58 1517.67C1199.58 1510.75 1193.93 1505.13 1186.95 1505.13C1179.96 1505.13 1174.31 1510.75 1174.31 1517.67Z" stroke="white" stroke-width="1.10127"/>
</g>
<rect x="-1.5" y="1.5" width="99.759" height="425.648" rx="49.8795" transform="matrix(-1 0 0 1 256.759 606)" stroke="url(#paint0_linear_434_827)" stroke-width="3"/>
<rect x="950.5" y="1841.5" width="147" height="358" rx="73.5" transform="rotate(180 950.5 1841.5)" stroke="url(#paint1_linear_434_827)" stroke-width="3"/>
<rect x="-1.5" y="1.5" width="141.59" height="359.635" rx="70.7951" transform="matrix(-1 0 0 1 1651.59 1912)" stroke="url(#paint2_linear_434_827)" stroke-width="3"/>
<rect x="-1.5" y="1.5" width="108.853" height="200.322" rx="54.4264" transform="matrix(-1 0 0 1 1766.85 547)" stroke="url(#paint3_linear_434_827)" stroke-width="3"/>
<g filter="url(#filter3_f_434_827)">
<path d="M-37.522 -474.065C-37.522 -356.913 54.0844 -261.942 167.087 -261.942C280.089 -261.942 371.695 -356.913 371.695 -474.065C371.695 -591.218 280.089 -686.189 167.087 -686.189C54.0844 -686.189 -37.522 -591.218 -37.522 -474.065Z" fill="#006C9C"/>
</g>
<g filter="url(#filter4_f_434_827)">
<ellipse rx="236.437" ry="292.66" transform="matrix(-1 0 0 1 123.436 1997.04)" fill="#0094D9"/>
</g>
<g filter="url(#filter5_f_434_827)">
<path d="M207.916 1762L203.22 1775.99H188.024L200.317 1784.63L195.622 1798.62L207.916 1789.98L220.209 1798.62L215.514 1784.63L227.807 1775.99H212.611L207.916 1762Z" fill="#1AA0CA" fill-opacity="0.43"/>
<path d="M207.916 1766.71L204.642 1776.47L204.298 1777.49H203.22H192.764L201.18 1783.41L202.096 1784.05L201.74 1785.11L198.499 1794.77L207.053 1788.75L207.916 1788.14L208.778 1788.75L217.332 1794.77L214.092 1785.11L213.735 1784.05L214.651 1783.41L223.067 1777.49H212.611H211.533L211.189 1776.47L207.916 1766.71Z" stroke="#01B7FF" stroke-width="3"/>
</g>
<g filter="url(#filter6_f_434_827)">
<path d="M1329.72 1788.88L1324.1 1805.61H1305.94L1320.63 1815.94L1315.02 1832.67L1329.72 1822.33L1344.42 1832.67L1338.8 1815.94L1353.5 1805.61H1335.33L1329.72 1788.88Z" fill="#1AA0CA"/>
</g>
<g filter="url(#filter7_bf_434_827)">
<path d="M445.029 2062.16C444.548 2060.1 441.614 2060.1 441.133 2062.16L440.055 2066.78C439.745 2068.11 438.227 2068.75 437.064 2068.04L432.956 2065.53C431.137 2064.41 429.074 2066.54 430.238 2068.32L432.672 2072.06C433.437 2073.23 432.792 2074.8 431.424 2075.1L427.01 2076.07C424.913 2076.53 424.913 2079.52 427.01 2079.97L431.425 2080.94C432.792 2081.24 433.437 2082.81 432.672 2083.99L430.238 2087.72C429.073 2089.5 431.137 2091.63 432.956 2090.52L437.064 2088.01C438.227 2087.3 439.745 2087.93 440.055 2089.26L441.133 2093.88C441.614 2095.94 444.548 2095.94 445.029 2093.88L446.108 2089.26C446.417 2087.93 447.935 2087.3 449.098 2088.01L453.206 2090.52C455.025 2091.63 457.089 2089.5 455.924 2087.72L453.49 2083.99C452.725 2082.81 453.37 2081.24 454.738 2080.94L459.152 2079.97C461.249 2079.52 461.249 2076.53 459.152 2076.07L454.738 2075.1C453.37 2074.8 452.725 2073.23 453.49 2072.06L455.924 2068.32C457.089 2066.54 455.025 2064.41 453.206 2065.53L449.098 2068.04C447.935 2068.75 446.417 2068.11 446.108 2066.78L445.029 2062.16Z" fill="#1AA0CA"/>
</g>
<path d="M1296.5 1005.41C1296.5 1037.39 1322.62 1063.32 1354.87 1063.32C1387.11 1063.32 1413.23 1037.39 1413.23 1005.41C1413.23 973.439 1387.11 947.5 1354.87 947.5C1322.62 947.5 1296.5 973.439 1296.5 1005.41Z" stroke="url(#paint4_linear_434_827)" stroke-width="3"/>
<defs>
<filter id="filter0_f_434_827" x="153" y="-864" width="2817.67" height="2924.16" filterUnits="userSpaceOnUse" color-interpolation-filters="sRGB">
<feFlood flood-opacity="0" result="BackgroundImageFix"/>
<feBlend mode="normal" in="SourceGraphic" in2="BackgroundImageFix" result="shape"/>
<feGaussianBlur stdDeviation="533" result="effect1_foregroundBlur_434_827"/>
</filter>
<filter id="filter1_f_434_827" x="450" y="525" width="2654" height="2734" filterUnits="userSpaceOnUse" color-interpolation-filters="sRGB">
<feFlood flood-opacity="0" result="BackgroundImageFix"/>
<feBlend mode="normal" in="SourceGraphic" in2="BackgroundImageFix" result="shape"/>
<feGaussianBlur stdDeviation="533" result="effect1_foregroundBlur_434_827"/>
</filter>
<filter id="filter2_f_434_827" x="1170.29" y="1501.11" width="33.3229" height="33.1223" filterUnits="userSpaceOnUse" color-interpolation-filters="sRGB">
<feFlood flood-opacity="0" result="BackgroundImageFix"/>
<feBlend mode="normal" in="SourceGraphic" in2="BackgroundImageFix" result="shape"/>
<feGaussianBlur stdDeviation="1.73771" result="effect1_foregroundBlur_434_827"/>
</filter>
<filter id="filter3_f_434_827" x="-692.521" y="-1341.19" width="1719.22" height="1734.25" filterUnits="userSpaceOnUse" color-interpolation-filters="sRGB">
<feFlood flood-opacity="0" result="BackgroundImageFix"/>
<feBlend mode="normal" in="SourceGraphic" in2="BackgroundImageFix" result="shape"/>
<feGaussianBlur stdDeviation="327.5" result="effect1_foregroundBlur_434_827"/>
</filter>
<filter id="filter4_f_434_827" x="-1175" y="642.384" width="2596.87" height="2709.32" filterUnits="userSpaceOnUse" color-interpolation-filters="sRGB">
<feFlood flood-opacity="0" result="BackgroundImageFix"/>
<feBlend mode="normal" in="SourceGraphic" in2="BackgroundImageFix" result="shape"/>
<feGaussianBlur stdDeviation="531" result="effect1_foregroundBlur_434_827"/>
</filter>
<filter id="filter5_f_434_827" x="175.023" y="1749" width="65.7842" height="62.6221" filterUnits="userSpaceOnUse" color-interpolation-filters="sRGB">
<feFlood flood-opacity="0" result="BackgroundImageFix"/>
<feBlend mode="normal" in="SourceGraphic" in2="BackgroundImageFix" result="shape"/>
<feGaussianBlur stdDeviation="6.5" result="effect1_foregroundBlur_434_827"/>
</filter>
<filter id="filter6_f_434_827" x="1273.94" y="1756.88" width="111.567" height="107.787" filterUnits="userSpaceOnUse" color-interpolation-filters="sRGB">
<feFlood flood-opacity="0" result="BackgroundImageFix"/>
<feBlend mode="normal" in="SourceGraphic" in2="BackgroundImageFix" result="shape"/>
<feGaussianBlur stdDeviation="16" result="effect1_foregroundBlur_434_827"/>
</filter>
<filter id="filter7_bf_434_827" x="301.438" y="1936.62" width="283.287" height="282.81" filterUnits="userSpaceOnUse" color-interpolation-filters="sRGB">
<feFlood flood-opacity="0" result="BackgroundImageFix"/>
<feGaussianBlur in="BackgroundImageFix" stdDeviation="62"/>
<feComposite in2="SourceAlpha" operator="in" result="effect1_backgroundBlur_434_827"/>
<feBlend mode="normal" in="SourceGraphic" in2="effect1_backgroundBlur_434_827" result="shape"/>
<feGaussianBlur stdDeviation="6.5" result="effect2_foregroundBlur_434_827"/>
</filter>
<linearGradient id="paint0_linear_434_827" x1="51.6835" y1="2.63602e-06" x2="93.401" y2="428.435" gradientUnits="userSpaceOnUse">
<stop stop-color="#1F1F1F" stop-opacity="0.6"/>
<stop offset="1" stop-color="#00A3FF" stop-opacity="0.33"/>
</linearGradient>
<linearGradient id="paint1_linear_434_827" x1="1027.44" y1="1843" x2="1047.84" y2="2206.1" gradientUnits="userSpaceOnUse">
<stop stop-opacity="0.6"/>
<stop offset="1" stop-color="#00B2FF" stop-opacity="0.28"/>
</linearGradient>
<linearGradient id="paint2_linear_434_827" x1="72.7228" y1="2.23006e-06" x2="94.0704" y2="364.641" gradientUnits="userSpaceOnUse">
<stop stop-color="#9C9C9C" stop-opacity="0.6"/>
<stop offset="1" stop-color="#00A3FF" stop-opacity="0.33"/>
</linearGradient>
<linearGradient id="paint3_linear_434_827" x1="56.2573" y1="1.25035e-06" x2="64.9464" y2="204.779" gradientUnits="userSpaceOnUse">
<stop stop-color="#1F1F1F" stop-opacity="0.6"/>
<stop offset="1" stop-color="#00A3FF" stop-opacity="0.33"/>
</linearGradient>
<linearGradient id="paint4_linear_434_827" x1="1354.87" y1="946" x2="1354.87" y2="1064.82" gradientUnits="userSpaceOnUse">
<stop stop-color="#02354E" stop-opacity="0.27"/>
<stop offset="1" stop-color="#00B2FF" stop-opacity="0.28"/>
</linearGradient>
</defs>
</svg>
