<svg width="1920" height="3179" viewBox="0 0 1920 3179" fill="none" xmlns="http://www.w3.org/2000/svg">
<g filter="url(#filter0_f_1527_1652)">
<ellipse cx="450.443" cy="1167.08" rx="312.072" ry="396.082" fill="#005881" fill-opacity="0.68"/>
</g>
<g filter="url(#filter1_f_1527_1652)">
<ellipse cx="254.582" cy="2461" rx="237.582" ry="301" fill="#005881"/>
</g>
<path d="M1634.89 880.647C1634.89 899.631 1620.81 914.795 1603.7 914.795C1586.59 914.795 1572.5 899.631 1572.5 880.647C1572.5 861.664 1586.59 846.5 1603.7 846.5C1620.81 846.5 1634.89 861.664 1634.89 880.647Z" stroke="#272727" stroke-width="3"/>
<g filter="url(#filter2_f_1527_1652)">
<path d="M803.144 2086.67C803.144 2093.64 797.973 2099.2 791.692 2099.2C785.411 2099.2 780.24 2093.64 780.24 2086.67C780.24 2079.7 785.411 2074.13 791.692 2074.13C797.973 2074.13 803.144 2079.7 803.144 2086.67Z" stroke="white" stroke-width="1.10127"/>
</g>
<rect x="1637.19" y="1176.5" width="90.5389" height="425.648" rx="45.2694" stroke="url(#paint0_linear_1527_1652)" stroke-width="3"/>
<rect x="1.5" y="-1.5" width="133.541" height="358" rx="66.7706" transform="matrix(1 0 0 -1 1477 2318)" stroke="url(#paint1_linear_1527_1652)" stroke-width="3"/>
<rect x="367.508" y="2482.5" width="128.617" height="359.635" rx="64.3083" stroke="url(#paint2_linear_1527_1652)" stroke-width="3"/>
<rect x="262.588" y="1117.5" width="98.8167" height="200.322" rx="49.4083" stroke="url(#paint3_linear_1527_1652)" stroke-width="3"/>
<g filter="url(#filter3_f_1527_1652)">
<path d="M1976.5 131.124C1976.5 248.276 1893.11 343.247 1790.25 343.247C1687.39 343.247 1604 248.276 1604 131.124C1604 13.971 1687.39 -81 1790.25 -81C1893.11 -81 1976.5 13.971 1976.5 131.124Z" fill="#006C9C"/>
</g>
<g filter="url(#filter4_f_1527_1652)">
<ellipse cx="1759.78" cy="2566.04" rx="215.222" ry="292.66" fill="#0094D9" fill-opacity="0.69"/>
</g>
<g filter="url(#filter5_f_1527_1652)">
<path d="M1578.04 1523L1582.31 1536.99H1596.15L1584.96 1545.63L1589.23 1559.62L1578.04 1550.98L1566.85 1559.62L1571.12 1545.63L1559.93 1536.99H1573.76L1578.04 1523Z" fill="#1AA0CA" fill-opacity="0.43"/>
<path d="M1578.04 1528.13L1580.88 1537.43L1581.2 1538.49H1582.31H1591.75L1584.04 1544.45L1583.22 1545.08L1583.52 1546.07L1586.42 1555.55L1578.96 1549.79L1578.04 1549.08L1577.12 1549.79L1569.66 1555.55L1572.56 1546.07L1572.86 1545.08L1572.04 1544.45L1564.33 1538.49H1573.76H1574.87L1575.2 1537.43L1578.04 1528.13Z" stroke="#01B7FF" stroke-width="3"/>
</g>
<g filter="url(#filter6_f_1527_1652)">
<path d="M661.73 2357.88L666.841 2374.61H683.38L670 2384.94L675.11 2401.67L661.73 2391.33L648.35 2401.67L653.461 2384.94L640.08 2374.61H656.619L661.73 2357.88Z" fill="#1AA0CA"/>
</g>
<g filter="url(#filter7_bf_1527_1652)">
<path d="M1466.86 2632.03C1467.31 2629.91 1470.32 2629.91 1470.77 2632.03L1471.53 2635.59C1471.82 2636.97 1473.42 2637.62 1474.6 2636.83L1477.55 2634.85C1479.32 2633.66 1481.47 2635.7 1480.38 2637.53L1478.23 2641.15C1477.54 2642.31 1478.17 2643.8 1479.48 2644.12L1483.48 2645.08C1485.52 2645.57 1485.52 2648.47 1483.48 2648.97L1479.48 2649.93C1478.17 2650.24 1477.54 2651.73 1478.23 2652.89L1480.38 2656.51C1481.47 2658.34 1479.32 2660.38 1477.55 2659.19L1474.6 2657.21C1473.42 2656.42 1471.82 2657.07 1471.53 2658.46L1470.77 2662.02C1470.32 2664.13 1467.31 2664.13 1466.86 2662.02L1466.1 2658.46C1465.81 2657.07 1464.21 2656.42 1463.03 2657.21L1460.08 2659.19C1458.31 2660.38 1456.16 2658.34 1457.25 2656.51L1459.4 2652.89C1460.08 2651.73 1459.45 2650.24 1458.14 2649.93L1454.15 2648.97C1452.1 2648.47 1452.1 2645.57 1454.15 2645.08L1458.14 2644.12C1459.45 2643.8 1460.08 2642.31 1459.4 2641.15L1457.25 2637.53C1456.16 2635.7 1458.31 2633.66 1460.08 2634.85L1463.03 2636.83C1464.21 2637.62 1465.81 2636.97 1466.1 2635.59L1466.86 2632.03Z" fill="#1AA0CA"/>
</g>
<path d="M321.491 1991.41C321.491 2023.52 297.645 2049.32 268.495 2049.32C239.346 2049.32 215.5 2023.52 215.5 1991.41C215.5 1959.3 239.346 1933.5 268.495 1933.5C297.645 1933.5 321.491 1959.3 321.491 1991.41Z" stroke="url(#paint4_linear_1527_1652)" stroke-width="3"/>
<path d="M2022.75 13.7491C2022.75 113.975 1948.25 194.998 1856.62 194.998C1765 194.998 1690.5 113.975 1690.5 13.7491C1690.5 -86.4766 1765 -167.5 1856.62 -167.5C1948.25 -167.5 2022.75 -86.4766 2022.75 13.7491Z" stroke="url(#paint5_linear_1527_1652)" stroke-width="3"/>
<defs>
<filter id="filter0_f_1527_1652" x="-927.629" y="-295" width="2756.14" height="2924.16" filterUnits="userSpaceOnUse" color-interpolation-filters="sRGB">
<feFlood flood-opacity="0" result="BackgroundImageFix"/>
<feBlend mode="normal" in="SourceGraphic" in2="BackgroundImageFix" result="shape"/>
<feGaussianBlur stdDeviation="533" result="effect1_foregroundBlur_1527_1652"/>
</filter>
<filter id="filter1_f_1527_1652" x="-1049" y="1094" width="2607.16" height="2734" filterUnits="userSpaceOnUse" color-interpolation-filters="sRGB">
<feFlood flood-opacity="0" result="BackgroundImageFix"/>
<feBlend mode="normal" in="SourceGraphic" in2="BackgroundImageFix" result="shape"/>
<feGaussianBlur stdDeviation="533" result="effect1_foregroundBlur_1527_1652"/>
</filter>
<filter id="filter2_f_1527_1652" x="776.214" y="2070.11" width="30.9562" height="33.1223" filterUnits="userSpaceOnUse" color-interpolation-filters="sRGB">
<feFlood flood-opacity="0" result="BackgroundImageFix"/>
<feBlend mode="normal" in="SourceGraphic" in2="BackgroundImageFix" result="shape"/>
<feGaussianBlur stdDeviation="1.73771" result="effect1_foregroundBlur_1527_1652"/>
</filter>
<filter id="filter3_f_1527_1652" x="949" y="-736" width="1682.5" height="1734.25" filterUnits="userSpaceOnUse" color-interpolation-filters="sRGB">
<feFlood flood-opacity="0" result="BackgroundImageFix"/>
<feBlend mode="normal" in="SourceGraphic" in2="BackgroundImageFix" result="shape"/>
<feGaussianBlur stdDeviation="327.5" result="effect1_foregroundBlur_1527_1652"/>
</filter>
<filter id="filter4_f_1527_1652" x="482.556" y="1211.38" width="2554.44" height="2709.32" filterUnits="userSpaceOnUse" color-interpolation-filters="sRGB">
<feFlood flood-opacity="0" result="BackgroundImageFix"/>
<feBlend mode="normal" in="SourceGraphic" in2="BackgroundImageFix" result="shape"/>
<feGaussianBlur stdDeviation="531" result="effect1_foregroundBlur_1527_1652"/>
</filter>
<filter id="filter5_f_1527_1652" x="1546.93" y="1510" width="62.2144" height="62.6221" filterUnits="userSpaceOnUse" color-interpolation-filters="sRGB">
<feFlood flood-opacity="0" result="BackgroundImageFix"/>
<feBlend mode="normal" in="SourceGraphic" in2="BackgroundImageFix" result="shape"/>
<feGaussianBlur stdDeviation="6.5" result="effect1_foregroundBlur_1527_1652"/>
</filter>
<filter id="filter6_f_1527_1652" x="608.081" y="2325.88" width="107.299" height="107.787" filterUnits="userSpaceOnUse" color-interpolation-filters="sRGB">
<feFlood flood-opacity="0" result="BackgroundImageFix"/>
<feBlend mode="normal" in="SourceGraphic" in2="BackgroundImageFix" result="shape"/>
<feGaussianBlur stdDeviation="16" result="effect1_foregroundBlur_1527_1652"/>
</filter>
<filter id="filter7_bf_1527_1652" x="1328.61" y="2506.44" width="280.4" height="281.161" filterUnits="userSpaceOnUse" color-interpolation-filters="sRGB">
<feFlood flood-opacity="0" result="BackgroundImageFix"/>
<feGaussianBlur in="BackgroundImageFix" stdDeviation="62"/>
<feComposite in2="SourceAlpha" operator="in" result="effect1_backgroundBlur_1527_1652"/>
<feBlend mode="normal" in="SourceGraphic" in2="effect1_backgroundBlur_1527_1652" result="shape"/>
<feGaussianBlur stdDeviation="6.5" result="effect2_foregroundBlur_1527_1652"/>
</filter>
<linearGradient id="paint0_linear_1527_1652" x1="1682.73" y1="1175" x2="1728.47" y2="1602.6" gradientUnits="userSpaceOnUse">
<stop stop-color="#1F1F1F" stop-opacity="0.6"/>
<stop offset="1" stop-color="#00A3FF" stop-opacity="0.33"/>
</linearGradient>
<linearGradient id="paint1_linear_1527_1652" x1="68.6745" y1="2.22001e-06" x2="91.0686" y2="362.859" gradientUnits="userSpaceOnUse">
<stop stop-opacity="0.6"/>
<stop offset="1" stop-color="#00B2FF" stop-opacity="0.28"/>
</linearGradient>
<linearGradient id="paint2_linear_1527_1652" x1="432.206" y1="2481" x2="455.641" y2="2845.38" gradientUnits="userSpaceOnUse">
<stop stop-color="#9C9C9C" stop-opacity="0.6"/>
<stop offset="1" stop-color="#00A3FF" stop-opacity="0.33"/>
</linearGradient>
<linearGradient id="paint3_linear_1527_1652" x1="312.297" y1="1116" x2="321.839" y2="1320.7" gradientUnits="userSpaceOnUse">
<stop stop-color="#1F1F1F" stop-opacity="0.6"/>
<stop offset="1" stop-color="#00A3FF" stop-opacity="0.33"/>
</linearGradient>
<linearGradient id="paint4_linear_1527_1652" x1="268.495" y1="1932" x2="268.495" y2="2050.82" gradientUnits="userSpaceOnUse">
<stop stop-color="#02354E" stop-opacity="0.27"/>
<stop offset="1" stop-color="#00B2FF" stop-opacity="0.28"/>
</linearGradient>
<linearGradient id="paint5_linear_1527_1652" x1="1874.42" y1="-57.657" x2="1715.07" y2="196.513" gradientUnits="userSpaceOnUse">
<stop offset="0.397544" stop-color="#E40000" stop-opacity="0"/>
<stop offset="0.904504" stop-color="#00F0FF"/>
</linearGradient>
</defs>
</svg>
