<svg width="1920" height="3074" viewBox="0 0 1920 3074" fill="none" xmlns="http://www.w3.org/2000/svg">
<g filter="url(#filter0_f_424_671)">
<ellipse rx="342.833" ry="396.082" transform="matrix(-1 0 0 1 1477.83 586.082)" fill="#005881"/>
</g>
<g filter="url(#filter1_f_424_671)">
<ellipse rx="261" ry="301" transform="matrix(-1 0 0 1 1429 2076)" fill="#005881"/>
</g>
<path d="M619.04 707.62C619.04 726.468 634.44 741.767 653.461 741.767C672.481 741.767 687.881 726.468 687.881 707.62C687.881 688.771 672.481 673.472 653.461 673.472C634.44 673.472 619.04 688.771 619.04 707.62Z" stroke="#272727" stroke-width="3"/>
<g filter="url(#filter2_f_424_671)">
<path d="M1037.31 1510.67C1037.31 1517.59 1042.96 1523.2 1049.95 1523.2C1056.93 1523.2 1062.58 1517.59 1062.58 1510.67C1062.58 1503.75 1056.93 1498.13 1049.95 1498.13C1042.96 1498.13 1037.31 1503.75 1037.31 1510.67Z" stroke="white" stroke-width="1.10127"/>
</g>
<rect x="-1.5" y="1.5" width="99.759" height="425.648" rx="49.8795" transform="matrix(-1 0 0 1 326.759 708)" stroke="url(#paint0_linear_424_671)" stroke-width="3"/>
<rect x="1291.5" y="2249.5" width="147" height="358" rx="73.5" transform="rotate(180 1291.5 2249.5)" stroke="url(#paint1_linear_424_671)" stroke-width="3"/>
<rect x="-1.5" y="1.5" width="141.59" height="359.635" rx="70.7951" transform="matrix(-1 0 0 1 306.264 1953.52)" stroke="url(#paint2_linear_424_671)" stroke-width="3"/>
<rect x="-1.5" y="1.5" width="108.853" height="200.322" rx="54.4264" transform="matrix(-1 0 0 1 1357.85 484)" stroke="url(#paint3_linear_424_671)" stroke-width="3"/>
<g filter="url(#filter3_f_424_671)">
<path d="M-174.522 -481.065C-174.522 -363.913 -82.9156 -268.942 30.0867 -268.942C143.089 -268.942 234.695 -363.913 234.695 -481.065C234.695 -598.218 143.089 -693.189 30.0867 -693.189C-82.9156 -693.189 -174.522 -598.218 -174.522 -481.065Z" fill="#006C9C"/>
</g>
<g filter="url(#filter4_f_424_671)">
<ellipse rx="236.437" ry="292.66" transform="matrix(-1 0 0 1 -13.5636 1990.04)" fill="#0094D9"/>
</g>
<g filter="url(#filter5_f_424_671)">
<path d="M70.9155 1755L66.2197 1768.99H51.0236L63.3175 1777.63L58.6217 1791.62L70.9155 1782.98L83.2094 1791.62L78.5135 1777.63L90.8074 1768.99H75.6113L70.9155 1755Z" fill="#1AA0CA" fill-opacity="0.43"/>
<path d="M70.9155 1759.71L67.6417 1769.47L67.2984 1770.49H66.2197H55.7643L64.1803 1776.41L65.0956 1777.05L64.7395 1778.11L61.4987 1787.77L70.0527 1781.75L70.9155 1781.14L71.7783 1781.75L80.3323 1787.77L77.0915 1778.11L76.7354 1777.05L77.6507 1776.41L86.0667 1770.49H75.6113H74.5326L74.1893 1769.47L70.9155 1759.71Z" stroke="#01B7FF" stroke-width="3"/>
</g>
<g filter="url(#filter6_f_424_671)">
<path d="M1192.72 1781.88L1187.1 1798.61H1168.94L1183.63 1808.94L1178.02 1825.67L1192.72 1815.33L1207.42 1825.67L1201.8 1808.94L1216.5 1798.61H1198.33L1192.72 1781.88Z" fill="#1AA0CA"/>
</g>
<g filter="url(#filter7_bf_424_671)">
<path d="M308.029 2055.16C307.548 2053.1 304.614 2053.1 304.133 2055.16L303.055 2059.78C302.745 2061.11 301.227 2061.75 300.064 2061.04L295.956 2058.53C294.137 2057.41 292.074 2059.54 293.238 2061.32L295.672 2065.06C296.437 2066.23 295.792 2067.8 294.424 2068.1L290.01 2069.07C287.913 2069.53 287.913 2072.52 290.01 2072.97L294.425 2073.94C295.792 2074.24 296.437 2075.81 295.672 2076.99L293.238 2080.72C292.073 2082.5 294.137 2084.63 295.956 2083.52L300.064 2081.01C301.227 2080.3 302.745 2080.93 303.055 2082.26L304.133 2086.88C304.614 2088.94 307.548 2088.94 308.029 2086.88L309.108 2082.26C309.417 2080.93 310.935 2080.3 312.098 2081.01L316.206 2083.52C318.025 2084.63 320.089 2082.5 318.924 2080.72L316.49 2076.99C315.725 2075.81 316.37 2074.24 317.738 2073.94L322.152 2072.97C324.249 2072.52 324.249 2069.53 322.152 2069.07L317.738 2068.1C316.37 2067.8 315.725 2066.23 316.49 2065.06L318.924 2061.32C320.089 2059.54 318.025 2057.41 316.206 2058.53L312.098 2061.04C310.935 2061.75 309.417 2061.11 309.108 2059.78L308.029 2055.16Z" fill="#1AA0CA"/>
</g>
<path d="M1159.5 998.412C1159.5 1030.39 1185.62 1056.32 1217.87 1056.32C1250.11 1056.32 1276.23 1030.39 1276.23 998.412C1276.23 966.439 1250.11 940.5 1217.87 940.5C1185.62 940.5 1159.5 966.439 1159.5 998.412Z" stroke="url(#paint4_linear_424_671)" stroke-width="3"/>
<defs>
<filter id="filter0_f_424_671" x="69" y="-876" width="2817.67" height="2924.16" filterUnits="userSpaceOnUse" color-interpolation-filters="sRGB">
<feFlood flood-opacity="0" result="BackgroundImageFix"/>
<feBlend mode="normal" in="SourceGraphic" in2="BackgroundImageFix" result="shape"/>
<feGaussianBlur stdDeviation="533" result="effect1_foregroundBlur_424_671"/>
</filter>
<filter id="filter1_f_424_671" x="102" y="709" width="2654" height="2734" filterUnits="userSpaceOnUse" color-interpolation-filters="sRGB">
<feFlood flood-opacity="0" result="BackgroundImageFix"/>
<feBlend mode="normal" in="SourceGraphic" in2="BackgroundImageFix" result="shape"/>
<feGaussianBlur stdDeviation="533" result="effect1_foregroundBlur_424_671"/>
</filter>
<filter id="filter2_f_424_671" x="1033.29" y="1494.11" width="33.3229" height="33.1223" filterUnits="userSpaceOnUse" color-interpolation-filters="sRGB">
<feFlood flood-opacity="0" result="BackgroundImageFix"/>
<feBlend mode="normal" in="SourceGraphic" in2="BackgroundImageFix" result="shape"/>
<feGaussianBlur stdDeviation="1.73771" result="effect1_foregroundBlur_424_671"/>
</filter>
<filter id="filter3_f_424_671" x="-829.521" y="-1348.19" width="1719.22" height="1734.25" filterUnits="userSpaceOnUse" color-interpolation-filters="sRGB">
<feFlood flood-opacity="0" result="BackgroundImageFix"/>
<feBlend mode="normal" in="SourceGraphic" in2="BackgroundImageFix" result="shape"/>
<feGaussianBlur stdDeviation="327.5" result="effect1_foregroundBlur_424_671"/>
</filter>
<filter id="filter4_f_424_671" x="-1312" y="635.384" width="2596.87" height="2709.32" filterUnits="userSpaceOnUse" color-interpolation-filters="sRGB">
<feFlood flood-opacity="0" result="BackgroundImageFix"/>
<feBlend mode="normal" in="SourceGraphic" in2="BackgroundImageFix" result="shape"/>
<feGaussianBlur stdDeviation="531" result="effect1_foregroundBlur_424_671"/>
</filter>
<filter id="filter5_f_424_671" x="38.0234" y="1742" width="65.7842" height="62.6221" filterUnits="userSpaceOnUse" color-interpolation-filters="sRGB">
<feFlood flood-opacity="0" result="BackgroundImageFix"/>
<feBlend mode="normal" in="SourceGraphic" in2="BackgroundImageFix" result="shape"/>
<feGaussianBlur stdDeviation="6.5" result="effect1_foregroundBlur_424_671"/>
</filter>
<filter id="filter6_f_424_671" x="1136.94" y="1749.88" width="111.567" height="107.787" filterUnits="userSpaceOnUse" color-interpolation-filters="sRGB">
<feFlood flood-opacity="0" result="BackgroundImageFix"/>
<feBlend mode="normal" in="SourceGraphic" in2="BackgroundImageFix" result="shape"/>
<feGaussianBlur stdDeviation="16" result="effect1_foregroundBlur_424_671"/>
</filter>
<filter id="filter7_bf_424_671" x="164.438" y="1929.62" width="283.287" height="282.81" filterUnits="userSpaceOnUse" color-interpolation-filters="sRGB">
<feFlood flood-opacity="0" result="BackgroundImageFix"/>
<feGaussianBlur in="BackgroundImageFix" stdDeviation="62"/>
<feComposite in2="SourceAlpha" operator="in" result="effect1_backgroundBlur_424_671"/>
<feBlend mode="normal" in="SourceGraphic" in2="effect1_backgroundBlur_424_671" result="shape"/>
<feGaussianBlur stdDeviation="6.5" result="effect2_foregroundBlur_424_671"/>
</filter>
<linearGradient id="paint0_linear_424_671" x1="51.6835" y1="2.63602e-06" x2="93.401" y2="428.435" gradientUnits="userSpaceOnUse">
<stop stop-color="#1F1F1F" stop-opacity="0.6"/>
<stop offset="1" stop-color="#00A3FF" stop-opacity="0.33"/>
</linearGradient>
<linearGradient id="paint1_linear_424_671" x1="1368.44" y1="2251" x2="1388.84" y2="2614.1" gradientUnits="userSpaceOnUse">
<stop stop-opacity="0.6"/>
<stop offset="1" stop-color="#00B2FF" stop-opacity="0.28"/>
</linearGradient>
<linearGradient id="paint2_linear_424_671" x1="72.7228" y1="2.23006e-06" x2="94.0704" y2="364.641" gradientUnits="userSpaceOnUse">
<stop stop-color="#9C9C9C" stop-opacity="0.6"/>
<stop offset="1" stop-color="#00A3FF" stop-opacity="0.33"/>
</linearGradient>
<linearGradient id="paint3_linear_424_671" x1="56.2573" y1="1.25035e-06" x2="64.9464" y2="204.779" gradientUnits="userSpaceOnUse">
<stop stop-color="#1F1F1F" stop-opacity="0.6"/>
<stop offset="1" stop-color="#00A3FF" stop-opacity="0.33"/>
</linearGradient>
<linearGradient id="paint4_linear_424_671" x1="1217.87" y1="939" x2="1217.87" y2="1057.82" gradientUnits="userSpaceOnUse">
<stop stop-color="#02354E" stop-opacity="0.27"/>
<stop offset="1" stop-color="#00B2FF" stop-opacity="0.28"/>
</linearGradient>
</defs>
</svg>
